<?xml version="1.0" encoding="UTF-8"?>
<svg id="Camada_2" data-name="Camada 2" xmlns="http://www.w3.org/2000/svg" viewBox="0 0 279.81 69.54">
  <defs>
    <style>
      .cls-1 {
        fill: #fff;
      }
    </style>
  </defs>
  <g id="OBJECTS">
    <g>
      <path class="cls-1" d="m20.58,16.58c-.18,2.47-1.09,4.42-2.74,5.84s-3.81,2.13-6.5,2.13c-2.94,0-5.26-.99-6.95-2.97-1.69-1.98-2.53-4.7-2.53-8.16v-1.4c0-2.21.39-4.15,1.17-5.84.78-1.68,1.89-2.97,3.34-3.87,1.45-.9,3.12-1.35,5.04-1.35,2.65,0,4.78.71,6.4,2.13s2.55,3.41,2.81,5.98h-4.73c-.12-1.48-.53-2.56-1.24-3.23-.71-.67-1.79-1-3.24-1-1.58,0-2.76.57-3.54,1.7-.78,1.13-1.19,2.88-1.21,5.26v1.73c0,2.48.38,4.3,1.13,5.44.75,1.15,1.94,1.72,3.56,1.72,1.46,0,2.55-.33,3.27-1,.72-.67,1.13-1.7,1.24-3.1h4.73Z"/>
      <path class="cls-1" d="m23.36,2.74c0-.68.23-1.25.69-1.69.46-.44,1.08-.66,1.87-.66s1.4.22,1.86.66c.46.44.69,1,.69,1.69s-.23,1.26-.7,1.7c-.47.44-1.09.66-1.85.66s-1.39-.22-1.85-.66c-.47-.44-.7-1.01-.7-1.7Zm4.84,21.48h-4.57V7.16h4.57v17.06Z"/>
      <path class="cls-1" d="m39.81,24.54c-2.5,0-4.54-.77-6.11-2.3s-2.36-3.58-2.36-6.14v-.44c0-1.71.33-3.25.99-4.6.66-1.35,1.6-2.39,2.82-3.12,1.21-.73,2.6-1.1,4.16-1.1,2.33,0,4.17.74,5.51,2.21,1.34,1.47,2.01,3.56,2.01,6.26v1.86h-10.87c.15,1.11.59,2.01,1.33,2.68.74.67,1.68,1.01,2.82,1.01,1.76,0,3.13-.64,4.12-1.91l2.24,2.51c-.68.97-1.61,1.72-2.78,2.26-1.17.54-2.46.81-3.88.81Zm5.03-20.13v.19h-3.63s-2.43-2.28-2.43-2.28l-2.43,2.29h-3.56v-.26l4.67-4.35h2.65l4.73,4.41Zm-5.55,6.11c-.9,0-1.64.31-2.2.92-.56.61-.92,1.49-1.08,2.63h6.34v-.36c-.02-1.01-.29-1.8-.82-2.35-.53-.55-1.27-.83-2.24-.83Z"/>
      <path class="cls-1" d="m53.6,7.16l.14,1.97c1.22-1.52,2.85-2.29,4.9-2.29,1.81,0,3.15.53,4.04,1.59.88,1.06,1.34,2.65,1.36,4.76v11.02h-4.56v-10.91c0-.97-.21-1.67-.63-2.11-.42-.44-1.12-.65-2.1-.65-1.28,0-2.25.55-2.89,1.64v12.03h-4.56V7.16h4.29Z"/>
      <path class="cls-1" d="m74.6,20.87c.84,0,1.52-.23,2.05-.69.53-.46.8-1.08.82-1.85h4.27c-.01,1.16-.33,2.22-.95,3.18-.62.96-1.47,1.71-2.55,2.24-1.08.53-2.27.8-3.57.8-2.44,0-4.36-.78-5.77-2.33-1.41-1.55-2.11-3.69-2.11-6.43v-.3c0-2.63.7-4.73,2.1-6.29,1.4-1.57,3.32-2.35,5.76-2.35,2.13,0,3.85.61,5.13,1.82s1.94,2.83,1.96,4.85h-4.27c-.02-.89-.29-1.61-.82-2.16-.53-.55-1.22-.83-2.08-.83-1.06,0-1.86.39-2.41,1.16-.54.77-.81,2.03-.81,3.77v.47c0,1.76.27,3.02.8,3.79.54.77,1.35,1.15,2.44,1.15Z"/>
      <path class="cls-1" d="m84.31,2.74c0-.68.23-1.25.69-1.69.46-.44,1.08-.66,1.87-.66s1.4.22,1.86.66c.46.44.69,1,.69,1.69s-.23,1.26-.7,1.7c-.47.44-1.09.66-1.85.66s-1.39-.22-1.85-.66c-.47-.44-.7-1.01-.7-1.7Zm4.84,21.48h-4.57V7.16h4.57v17.06Z"/>
      <path class="cls-1" d="m102.79,24.22c-.21-.41-.36-.92-.46-1.53-1.1,1.23-2.54,1.85-4.31,1.85-1.67,0-3.06-.48-4.16-1.45-1.1-.97-1.65-2.19-1.65-3.66,0-1.81.67-3.2,2.01-4.16,1.34-.97,3.28-1.46,5.81-1.47h2.1v-.98c0-.79-.2-1.42-.61-1.89-.4-.47-1.04-.71-1.92-.71-.77,0-1.37.18-1.81.55-.44.37-.65.87-.65,1.51h-4.56c0-.99.3-1.9.91-2.74.61-.84,1.47-1.5,2.59-1.98,1.11-.48,2.37-.72,3.75-.72,2.1,0,3.77.53,5.01,1.58s1.85,2.54,1.85,4.46v7.4c0,1.62.24,2.84.68,3.67v.27h-4.61Zm-3.77-3.17c.67,0,1.29-.15,1.86-.45.57-.3.99-.7,1.26-1.21v-2.93h-1.7c-2.28,0-3.5.79-3.64,2.37l-.02.27c0,.57.2,1.04.6,1.4.4.37.95.55,1.64.55Z"/>
      <path class="cls-1" d="m119.46,19.51c0-.56-.28-1-.83-1.32-.55-.32-1.44-.61-2.66-.86-4.06-.85-6.09-2.58-6.09-5.17,0-1.51.63-2.78,1.88-3.79,1.26-1.01,2.9-1.52,4.93-1.52,2.17,0,3.9.51,5.2,1.53,1.3,1.02,1.95,2.34,1.95,3.97h-4.56c0-.65-.21-1.19-.63-1.62-.42-.43-1.08-.64-1.97-.64-.77,0-1.36.17-1.78.52-.42.35-.63.79-.63,1.32,0,.5.24.91.72,1.22.48.31,1.29.58,2.42.8,1.14.23,2.09.48,2.87.76,2.41.88,3.61,2.41,3.61,4.59,0,1.56-.67,2.82-2,3.78-1.33.96-3.06,1.44-5.17,1.44-1.43,0-2.7-.26-3.81-.76s-1.98-1.21-2.61-2.1c-.63-.89-.95-1.85-.95-2.88h4.32c.04.81.34,1.43.9,1.86.56.43,1.3.65,2.24.65.87,0,1.53-.17,1.98-.5.45-.33.67-.76.67-1.3Z"/>
      <path class="cls-1" d="m153.86,24.22h-4.73v-9.84h-9.23v9.84h-4.73V1.26h4.73v9.3h9.23V1.26h4.73v22.96Z"/>
      <path class="cls-1" d="m167.91,22.49c-1.12,1.37-2.68,2.05-4.67,2.05-1.83,0-3.22-.53-4.19-1.58-.96-1.05-1.45-2.59-1.47-4.62V7.16h4.56v11.04c0,1.78.81,2.67,2.43,2.67s2.61-.54,3.19-1.61V7.16h4.57v17.06h-4.29l-.13-1.73Z"/>
      <path class="cls-1" d="m180.04,7.16l.14,1.91c1.21-1.48,2.84-2.22,4.91-2.22,2.2,0,3.71.87,4.53,2.6,1.2-1.73,2.91-2.6,5.12-2.6,1.85,0,3.23.54,4.13,1.62.9,1.08,1.36,2.7,1.36,4.87v10.9h-4.57v-10.88c0-.97-.19-1.67-.57-2.12-.38-.45-1.05-.67-2-.67-1.37,0-2.31.65-2.84,1.96l.02,11.72h-4.56v-10.87c0-.99-.2-1.7-.58-2.14-.39-.44-1.05-.66-1.99-.66-1.29,0-2.23.54-2.81,1.61v12.06h-4.56V7.16h4.27Z"/>
      <path class="cls-1" d="m213.62,24.22c-.21-.41-.36-.92-.46-1.53-1.1,1.23-2.54,1.85-4.31,1.85-1.67,0-3.06-.48-4.16-1.45-1.1-.97-1.65-2.19-1.65-3.66,0-1.81.67-3.2,2.01-4.16,1.34-.97,3.28-1.46,5.81-1.47h2.1v-.98c0-.79-.2-1.42-.61-1.89-.4-.47-1.04-.71-1.92-.71-.77,0-1.37.18-1.81.55-.44.37-.65.87-.65,1.51h-4.56c0-.99.3-1.9.91-2.74.61-.84,1.47-1.5,2.59-1.98,1.11-.48,2.37-.72,3.75-.72,2.1,0,3.77.53,5.01,1.58s1.85,2.54,1.85,4.46v7.4c0,1.62.24,2.84.68,3.67v.27h-4.61Zm-3.77-3.17c.67,0,1.29-.15,1.86-.45.57-.3.99-.7,1.26-1.21v-2.93h-1.7c-2.28,0-3.5.79-3.64,2.37l-.02.27c0,.57.2,1.04.6,1.4.4.37.95.55,1.64.55Z"/>
      <path class="cls-1" d="m225.24,7.16l.14,1.97c1.22-1.52,2.85-2.29,4.9-2.29,1.81,0,3.15.53,4.04,1.59.88,1.06,1.34,2.65,1.36,4.76v11.02h-4.56v-10.91c0-.97-.21-1.67-.63-2.11-.42-.44-1.12-.65-2.1-.65-1.28,0-2.25.55-2.89,1.64v12.03h-4.56V7.16h4.29Z"/>
      <path class="cls-1" d="m249.02,24.22c-.21-.41-.36-.92-.46-1.53-1.1,1.23-2.54,1.85-4.31,1.85-1.67,0-3.06-.48-4.16-1.45-1.1-.97-1.65-2.19-1.65-3.66,0-1.81.67-3.2,2.01-4.16,1.34-.97,3.28-1.46,5.81-1.47h2.1v-.98c0-.79-.2-1.42-.61-1.89-.4-.47-1.04-.71-1.92-.71-.77,0-1.37.18-1.81.55-.44.37-.65.87-.65,1.51h-4.56c0-.99.3-1.9.91-2.74.61-.84,1.47-1.5,2.59-1.98,1.11-.48,2.37-.72,3.75-.72,2.1,0,3.77.53,5.01,1.58s1.85,2.54,1.85,4.46v7.4c0,1.62.24,2.84.68,3.67v.27h-4.61Zm-3.77-3.17c.67,0,1.29-.15,1.86-.45.57-.3.99-.7,1.26-1.21v-2.93h-1.7c-2.28,0-3.5.79-3.64,2.37l-.02.27c0,.57.2,1.04.6,1.4.4.37.95.55,1.64.55Z"/>
      <path class="cls-1" d="m265.69,19.51c0-.56-.28-1-.83-1.32-.55-.32-1.44-.61-2.66-.86-4.06-.85-6.09-2.58-6.09-5.17,0-1.51.63-2.78,1.88-3.79,1.26-1.01,2.9-1.52,4.93-1.52,2.17,0,3.9.51,5.2,1.53,1.3,1.02,1.95,2.34,1.95,3.97h-4.56c0-.65-.21-1.19-.63-1.62-.42-.43-1.08-.64-1.97-.64-.77,0-1.36.17-1.78.52-.42.35-.63.79-.63,1.32,0,.5.24.91.72,1.22.48.31,1.29.58,2.42.8,1.14.23,2.09.48,2.87.76,2.41.88,3.61,2.41,3.61,4.59,0,1.56-.67,2.82-2,3.78-1.33.96-3.06,1.44-5.17,1.44-1.43,0-2.7-.26-3.81-.76s-1.98-1.21-2.61-2.1c-.63-.89-.95-1.85-.95-2.88h4.32c.04.81.34,1.43.9,1.86.56.43,1.3.65,2.24.65.87,0,1.53-.17,1.98-.5.45-.33.67-.76.67-1.3Z"/>
      <path class="cls-1" d="m8.47,63.3c-2.5,0-4.54-.77-6.11-2.3s-2.36-3.58-2.36-6.14v-.44c0-1.71.33-3.25.99-4.6.66-1.35,1.6-2.39,2.82-3.12,1.21-.73,2.6-1.1,4.16-1.1,2.33,0,4.17.74,5.51,2.21,1.34,1.47,2.01,3.56,2.01,6.26v1.86H4.62c.15,1.11.59,2.01,1.33,2.68.74.67,1.68,1.01,2.82,1.01,1.76,0,3.13-.64,4.12-1.91l2.24,2.51c-.68.97-1.61,1.72-2.78,2.26-1.17.54-2.46.81-3.88.81Zm-.52-14.02c-.9,0-1.64.31-2.2.92s-.92,1.49-1.08,2.63h6.34v-.36c-.02-1.01-.29-1.8-.82-2.35-.53-.55-1.27-.83-2.24-.83Z"/>
      <path class="cls-1" d="m38.32,56.96c0-.89-.32-1.58-.95-2.06s-1.77-.98-3.41-1.51c-1.64-.53-2.94-1.05-3.9-1.57-2.61-1.41-3.91-3.31-3.91-5.69,0-1.24.35-2.35,1.05-3.32.7-.97,1.7-1.73,3.01-2.28,1.31-.55,2.78-.82,4.41-.82s3.1.3,4.38.89c1.28.59,2.28,1.43,2.99,2.52.71,1.08,1.06,2.31,1.06,3.69h-4.73c0-1.05-.33-1.87-.99-2.45-.66-.58-1.59-.88-2.79-.88s-2.06.24-2.7.73c-.64.49-.96,1.13-.96,1.93,0,.75.38,1.37,1.13,1.88.75.5,1.86.98,3.32,1.42,2.69.81,4.65,1.81,5.88,3.01,1.23,1.2,1.84,2.69,1.84,4.48,0,1.99-.75,3.55-2.25,4.68-1.5,1.13-3.53,1.7-6.07,1.7-1.77,0-3.38-.32-4.83-.97-1.45-.65-2.56-1.53-3.32-2.66-.76-1.12-1.14-2.43-1.14-3.91h4.75c0,2.53,1.51,3.8,4.54,3.8,1.12,0,2-.23,2.63-.69.63-.46.95-1.1.95-1.92Z"/>
      <path class="cls-1" d="m45.26,54.29c0-1.69.33-3.2.98-4.53s1.59-2.35,2.82-3.08c1.22-.73,2.65-1.09,4.27-1.09,2.3,0,4.18.7,5.64,2.11,1.46,1.41,2.27,3.32,2.44,5.74l.03,1.17c0,2.62-.73,4.72-2.19,6.3-1.46,1.58-3.42,2.37-5.88,2.37s-4.42-.79-5.89-2.37-2.2-3.72-2.2-6.43v-.21Zm4.56.32c0,1.62.3,2.86.92,3.72.61.86,1.48,1.29,2.62,1.29s1.97-.42,2.59-1.27c.62-.85.93-2.2.93-4.07,0-1.59-.31-2.82-.93-3.7-.62-.87-1.49-1.31-2.62-1.31s-1.98.43-2.59,1.3c-.61.87-.92,2.21-.92,4.04Z"/>
      <path class="cls-1" d="m71.33,59.62c.84,0,1.52-.23,2.05-.69.53-.46.8-1.08.82-1.85h4.27c-.01,1.16-.33,2.22-.95,3.18-.62.96-1.47,1.71-2.55,2.24-1.08.53-2.27.8-3.57.8-2.44,0-4.36-.78-5.77-2.33-1.41-1.55-2.11-3.69-2.11-6.43v-.3c0-2.63.7-4.73,2.1-6.29,1.4-1.57,3.32-2.35,5.76-2.35,2.13,0,3.85.61,5.13,1.82s1.94,2.83,1.96,4.85h-4.27c-.02-.89-.29-1.61-.82-2.16-.53-.55-1.22-.83-2.08-.83-1.06,0-1.86.39-2.41,1.16-.54.77-.81,2.03-.81,3.77v.47c0,1.76.27,3.02.8,3.79.54.77,1.35,1.15,2.44,1.15Z"/>
      <path class="cls-1" d="m81.05,41.5c0-.68.23-1.25.69-1.69.46-.44,1.08-.66,1.87-.66s1.4.22,1.86.66c.46.44.69,1,.69,1.69s-.23,1.26-.7,1.7-1.09.66-1.85.66-1.39-.22-1.85-.66-.7-1.01-.7-1.7Zm4.84,21.48h-4.57v-17.06h4.57v17.06Z"/>
      <path class="cls-1" d="m99.53,62.98c-.21-.41-.36-.92-.46-1.53-1.1,1.23-2.54,1.85-4.31,1.85-1.67,0-3.06-.48-4.16-1.45-1.1-.97-1.65-2.19-1.65-3.66,0-1.81.67-3.2,2.01-4.16,1.34-.97,3.28-1.46,5.81-1.47h2.1v-.98c0-.79-.2-1.42-.61-1.89-.4-.47-1.04-.71-1.92-.71-.77,0-1.37.18-1.81.55-.44.37-.65.87-.65,1.51h-4.56c0-.99.3-1.9.91-2.74.61-.84,1.47-1.5,2.59-1.98,1.11-.48,2.37-.72,3.75-.72,2.1,0,3.77.53,5.01,1.58s1.85,2.54,1.85,4.46v7.4c0,1.62.24,2.84.68,3.67v.27h-4.61Zm-3.77-3.17c.67,0,1.29-.15,1.86-.45.57-.3.99-.7,1.26-1.21v-2.93h-1.7c-2.28,0-3.5.79-3.64,2.37l-.02.27c0,.57.2,1.04.6,1.4.4.37.95.55,1.64.55Z"/>
      <path class="cls-1" d="m106.93,41.5c0-.68.23-1.25.69-1.69.46-.44,1.08-.66,1.87-.66s1.4.22,1.86.66c.46.44.69,1,.69,1.69s-.23,1.26-.7,1.7-1.09.66-1.85.66-1.39-.22-1.85-.66-.7-1.01-.7-1.7Zm4.84,21.48h-4.57v-17.06h4.57v17.06Z"/>
      <path class="cls-1" d="m124.76,58.27c0-.56-.28-1-.83-1.32-.55-.32-1.44-.61-2.66-.86-4.06-.85-6.09-2.58-6.09-5.17,0-1.51.63-2.78,1.88-3.79,1.26-1.01,2.9-1.52,4.93-1.52,2.17,0,3.9.51,5.2,1.53,1.3,1.02,1.95,2.34,1.95,3.97h-4.56c0-.65-.21-1.19-.63-1.62-.42-.43-1.08-.64-1.97-.64-.77,0-1.36.17-1.78.52-.42.35-.63.79-.63,1.32,0,.5.24.91.72,1.22.48.31,1.29.58,2.42.8,1.14.23,2.09.48,2.87.76,2.41.88,3.61,2.41,3.61,4.59,0,1.56-.67,2.82-2,3.78-1.33.96-3.06,1.44-5.17,1.44-1.43,0-2.7-.26-3.81-.76s-1.98-1.21-2.61-2.1c-.63-.89-.95-1.85-.95-2.88h4.32c.04.81.34,1.43.9,1.86.56.43,1.3.65,2.24.65.87,0,1.53-.17,1.98-.5.45-.33.67-.76.67-1.3Z"/>
      <path class="cls-1" d="m153.44,58.25h-8.29l-1.58,4.73h-5.03l8.55-22.96h4.38l8.59,22.96h-5.03l-1.59-4.73Zm-7.02-3.83h5.74l-2.89-8.6-2.85,8.6Z"/>
      <path class="cls-1" d="m176.51,54.61c0,2.63-.6,4.73-1.79,6.32-1.19,1.58-2.8,2.37-4.83,2.37-1.72,0-3.12-.6-4.18-1.8v8.04h-4.56v-23.62h4.23l.16,1.67c1.1-1.32,2.54-1.99,4.32-1.99,2.1,0,3.74.78,4.91,2.33,1.17,1.56,1.75,3.7,1.75,6.43v.24Zm-4.56-.33c0-1.59-.28-2.81-.84-3.67s-1.38-1.29-2.45-1.29c-1.43,0-2.41.55-2.95,1.64v6.99c.56,1.12,1.55,1.69,2.98,1.69,2.18,0,3.26-1.78,3.26-5.35Z"/>
      <path class="cls-1" d="m184.14,62.98h-4.57v-24.22h4.57v24.22Z"/>
      <path class="cls-1" d="m187.86,41.5c0-.68.23-1.25.69-1.69.46-.44,1.08-.66,1.87-.66s1.4.22,1.86.66c.46.44.69,1,.69,1.69s-.23,1.26-.7,1.7-1.09.66-1.85.66-1.39-.22-1.85-.66-.7-1.01-.7-1.7Zm4.84,21.48h-4.57v-17.06h4.57v17.06Z"/>
      <path class="cls-1" d="m203.56,59.62c.84,0,1.52-.23,2.05-.69.53-.46.8-1.08.82-1.85h4.27c-.01,1.16-.33,2.22-.95,3.18-.62.96-1.47,1.71-2.55,2.24-1.08.53-2.27.8-3.57.8-2.44,0-4.36-.78-5.77-2.33-1.41-1.55-2.11-3.69-2.11-6.43v-.3c0-2.63.7-4.73,2.1-6.29,1.4-1.57,3.32-2.35,5.76-2.35,2.13,0,3.85.61,5.13,1.82s1.94,2.83,1.96,4.85h-4.27c-.02-.89-.29-1.61-.82-2.16-.53-.55-1.22-.83-2.08-.83-1.06,0-1.86.39-2.41,1.16-.54.77-.81,2.03-.81,3.77v.47c0,1.76.27,3.02.8,3.79.54.77,1.35,1.15,2.44,1.15Z"/>
      <path class="cls-1" d="m223.19,62.98c-.21-.41-.36-.92-.46-1.53-1.1,1.23-2.54,1.85-4.31,1.85-1.67,0-3.06-.48-4.16-1.45-1.1-.97-1.65-2.19-1.65-3.66,0-1.81.67-3.2,2.01-4.16,1.34-.97,3.28-1.46,5.81-1.47h2.1v-.98c0-.79-.2-1.42-.61-1.89-.4-.47-1.04-.71-1.92-.71-.77,0-1.37.18-1.81.55-.44.37-.65.87-.65,1.51h-4.56c0-.99.3-1.9.91-2.74.61-.84,1.47-1.5,2.59-1.98,1.11-.48,2.37-.72,3.75-.72,2.1,0,3.77.53,5.01,1.58s1.85,2.54,1.85,4.46v7.4c0,1.62.24,2.84.68,3.67v.27h-4.61Zm-3.77-3.17c.67,0,1.29-.15,1.86-.45.57-.3.99-.7,1.26-1.21v-2.93h-1.7c-2.28,0-3.5.79-3.64,2.37l-.02.27c0,.57.2,1.04.6,1.4.4.37.95.55,1.64.55Z"/>
      <path class="cls-1" d="m229.91,54.32c0-2.66.6-4.78,1.79-6.36,1.19-1.58,2.83-2.37,4.9-2.37,1.66,0,3.03.62,4.12,1.86v-8.71h4.57v24.22h-4.12l-.22-1.81c-1.14,1.42-2.6,2.13-4.38,2.13-2.01,0-3.62-.79-4.83-2.37-1.21-1.58-1.82-3.78-1.82-6.6Zm4.56.34c0,1.6.28,2.83.84,3.68.56.85,1.37,1.28,2.43,1.28,1.41,0,2.4-.59,2.98-1.78v-6.74c-.57-1.19-1.55-1.78-2.95-1.78-2.2,0-3.3,1.78-3.3,5.35Z"/>
      <path class="cls-1" d="m258.71,62.98c-.21-.41-.36-.92-.46-1.53-1.1,1.23-2.54,1.85-4.31,1.85-1.67,0-3.06-.48-4.16-1.45-1.1-.97-1.65-2.19-1.65-3.66,0-1.81.67-3.2,2.01-4.16,1.34-.97,3.28-1.46,5.81-1.47h2.1v-.98c0-.79-.2-1.42-.61-1.89-.4-.47-1.04-.71-1.92-.71-.77,0-1.37.18-1.81.55-.44.37-.65.87-.65,1.51h-4.56c0-.99.3-1.9.91-2.74.61-.84,1.47-1.5,2.59-1.98,1.11-.48,2.37-.72,3.75-.72,2.1,0,3.77.53,5.01,1.58s1.85,2.54,1.85,4.46v7.4c0,1.62.24,2.84.68,3.67v.27h-4.61Zm-3.77-3.17c.67,0,1.29-.15,1.86-.45.57-.3.99-.7,1.26-1.21v-2.93h-1.7c-2.28,0-3.5.79-3.64,2.37l-.02.27c0,.57.2,1.04.6,1.4.4.37.95.55,1.64.55Z"/>
      <path class="cls-1" d="m275.38,58.27c0-.56-.28-1-.83-1.32-.55-.32-1.44-.61-2.66-.86-4.06-.85-6.09-2.58-6.09-5.17,0-1.51.63-2.78,1.88-3.79,1.26-1.01,2.9-1.52,4.93-1.52,2.17,0,3.9.51,5.2,1.53,1.3,1.02,1.95,2.34,1.95,3.97h-4.56c0-.65-.21-1.19-.63-1.62-.42-.43-1.08-.64-1.97-.64-.77,0-1.36.17-1.78.52-.42.35-.63.79-.63,1.32,0,.5.24.91.72,1.22.48.31,1.29.58,2.42.8,1.14.23,2.09.48,2.87.76,2.41.88,3.61,2.41,3.61,4.59,0,1.56-.67,2.82-2,3.78-1.33.96-3.06,1.44-5.17,1.44-1.43,0-2.7-.26-3.81-.76s-1.98-1.21-2.61-2.1c-.63-.89-.95-1.85-.95-2.88h4.32c.04.81.34,1.43.9,1.86.56.43,1.3.65,2.24.65.87,0,1.53-.17,1.98-.5.45-.33.67-.76.67-1.3Z"/>
    </g>
  </g>
</svg>