<?xml version="1.0" encoding="UTF-8"?><svg id="Camada_2" xmlns="http://www.w3.org/2000/svg" xmlns:xlink="http://www.w3.org/1999/xlink" viewBox="0 0 355 338.52"><defs><style>.cls-1{fill:none;}.cls-2{fill:#00a7b3;}.cls-3{fill:#008086;}.cls-4{fill:#fff;}.cls-5{fill:#e7873c;}.cls-6{fill:#f0af7f;}.cls-7,.cls-8{fill:#ff9200;}.cls-9{fill:#ff926c;}.cls-10{fill:#9e7047;}.cls-11{fill:#ba8658;}.cls-12{fill:#be715b;}.cls-13{fill:#88542c;}.cls-14{fill:#8a4d3c;}.cls-15{fill:#7a5a34;}.cls-16{filter:url(#drop-shadow-3);}.cls-8{filter:url(#drop-shadow-1);}.cls-17{fill:#007981;filter:url(#drop-shadow-2);}.cls-18{isolation:isolate;}.cls-19{fill:#e5d8c3;opacity:.53;}.cls-20{fill:#f5f5f5;opacity:.48;}</style><filter id="drop-shadow-1" filterUnits="userSpaceOnUse"><feOffset dx="7.77" dy="7.77"/><feGaussianBlur result="blur" stdDeviation="5.55"/><feFlood flood-color="#000" flood-opacity=".2"/><feComposite in2="blur" operator="in"/><feComposite in="SourceGraphic"/></filter><filter id="drop-shadow-2" filterUnits="userSpaceOnUse"><feOffset dx="7.25" dy="7.25"/><feGaussianBlur result="blur-2" stdDeviation="5.18"/><feFlood flood-color="#000" flood-opacity=".2"/><feComposite in2="blur-2" operator="in"/><feComposite in="SourceGraphic"/></filter><filter id="drop-shadow-3" filterUnits="userSpaceOnUse"><feOffset dx="3" dy="3"/><feGaussianBlur result="blur-3" stdDeviation="0"/><feFlood flood-color="#133834" flood-opacity=".75"/><feComposite in2="blur-3" operator="in"/><feComposite in="SourceGraphic"/></filter></defs><g id="Layer_1"><path class="cls-2" d="m304.92,81.42c-8.92,13.79-36.82,11.6-62.32-4.89s-38.93-41.04-30.01-54.83,36.82-11.6,62.32,4.89,38.93,41.04,30.01,54.83"/><rect class="cls-1" x="67.33" y="33.23" width="214.16" height="129.62" rx="40.18" ry="40.18"/><path class="cls-7" d="m279.37,101.04c-4.2-19.67-21.04-34.32-43.58-40.85.25-4.17-.49-8.1-2.32-11.63-9.23-17.77-42.79-18.62-74.94-1.91-14.79,7.69-26.71,17.75-34.37,28.11-26.68.61-48.66,12.67-54.66,32.52-8.3,27.45,16.58,61.12,56.65,71.37,32.51,8.32,63.17,6.65,85.55,1.29,58.75-14.06,74.68-46.02,67.67-78.91Z"/><ellipse class="cls-2" cx="273.19" cy="168.49" rx="27.02" ry="16.4" transform="translate(-47.65 159.17) rotate(-30)"/><ellipse class="cls-2" cx="99.63" cy="200.38" rx="44.06" ry="69.87" transform="translate(-116.56 142.6) rotate(-48.6)"/><path class="cls-2" d="m281.45,105.03c-4.2-19.67-21.04-34.32-43.58-40.85.25-4.17-.49-8.1-2.32-11.63-9.23-17.77-42.79-18.62-74.94-1.91-14.79,7.69-26.71,17.75-34.37,28.11-26.68.61-48.66,12.67-54.66,32.52-8.3,27.45,16.58,61.12,56.65,71.37,32.51,8.32,63.17,6.65,85.55,1.29,58.75-14.06,74.68-46.02,67.67-78.91h0Z"/><path class="cls-9" d="m216.29,91.04c-.07,0-.14-.03-.19-.09-.09-.11-.09-.27.02-.36l15.53-13.74c.07-.06.16-.08.24-.05s.15.09.17.18l1.43,5.51,23.51-19.41c.11-.09.27-.08.36.03.09.11.08.27-.03.36l-23.82,19.66c-.07.05-.16.07-.24.05s-.15-.09-.17-.18l-1.42-5.5-15.22,13.47s-.11.06-.17.06h0Z"/><path class="cls-9" d="m105.25,112.95c-.05,0-.12-.02-.16-.05l-11.23-9.28c-.11-.09-.12-.25-.03-.36.09-.11.25-.12.36-.03l11.23,9.28c.11.09.12.25.03.36-.05.06-.12.09-.19.09h0Z"/><path class="cls-9" d="m202.37,64.57c-.07,0-.15-.03-.19-.09-.09-.11-.07-.27.04-.36l14.9-12.17c.11-.09.27-.07.36.04.09.11.07.27-.04.36l-14.9,12.17s-.1.05-.16.05Z"/><path class="cls-9" d="m55.73,166.39c-.1,0-.2-.06-.24-.16-.05-.13.02-.28.15-.33l37.02-13.58c.13-.05.28.02.33.15.05.13-.02.28-.15.33l-37.02,13.58s-.06.02-.09.02Z"/><path class="cls-9" d="m96.12,124.22s-.09,0-.13-.04l-16.23-9.72-.21,4.81c0,.09-.05.16-.12.21-.07.05-.16.05-.24.02l-17.61-8.08c-.12-.06-.19-.21-.12-.34s.21-.19.34-.12l17.27,7.92.21-4.86c0-.09.05-.17.13-.21.08-.04.17-.04.25,0l16.6,9.94c.12.07.16.23.09.35-.05.08-.13.12-.22.12h.02Z"/><path class="cls-9" d="m146.53,61.23c-.08,0-.16-.03-.2-.1l-14.29-18.83c-.09-.11-.06-.27.05-.36.11-.09.27-.06.36.05l14.29,18.83c.09.11.06.27-.05.36-.05.03-.1.05-.16.05Z"/><path class="cls-9" d="m161.86,46.65c-.13,0-.24-.1-.26-.23l-.42-5.49c0-.14.09-.27.23-.27.14,0,.27.09.27.23l.42,5.49c0,.14-.09.27-.23.27h-.02,0Z"/><path class="cls-9" d="m69.58,143.56c-.14,0-.25-.11-.26-.24,0-.14.1-.26.24-.27l9.32-.34c.15,0,.26.1.27.24,0,.14-.1.26-.24.27l-9.32.34s0,0,0,0Z"/><path class="cls-9" d="m247.04,174.47c-.05,0-.11-.02-.16-.05l-10.3-8.18c-.11-.09-.13-.25-.04-.36.09-.11.25-.13.36-.04l10.3,8.18c.11.09.13.25.04.36-.05.06-.12.09-.2.09h0Z"/><path class="cls-9" d="m277.99,166.21h-.05l-34.7-6.61c-.14-.02-.23-.16-.2-.3.02-.14.16-.23.3-.2l34.7,6.61c.14.02.23.16.2.3-.02.12-.13.21-.25.21h0Z"/><path class="cls-9" d="m235.54,200.38c-.1,0-.19-.05-.23-.16l-10.68-24.9-3.1,3.24c-.06.06-.16.09-.24.07s-.16-.09-.19-.17l-4.06-13.61c-.04-.13.04-.28.17-.32s.27.04.32.17l3.94,13.19,3.06-3.21c.06-.06.15-.09.23-.08.09.02.16.07.19.15l10.83,25.26c.05.13,0,.28-.13.34-.03.02-.07.02-.1.02h0Z"/><path class="cls-9" d="m237,97.81c-.12,0-.22-.08-.25-.19-.03-.14.05-.27.19-.31l16.8-4.11c.14-.03.27.05.31.19.03.14-.05.27-.19.31l-16.8,4.11h-.06,0Z"/><g class="cls-18"><g class="cls-18"><g class="cls-18"><path class="cls-10" d="m115.73,16.18L173.45.35c4.11-1.13,8.96.43,13.59,4.95,9.32,9.1,14.23,26.75,10.96,39.43-1.65,6.38-5.05,10.28-9.21,11.42l-57.71,15.83c4.16-1.14,7.57-5.05,9.21-11.43,3.27-12.68-1.63-30.33-10.96-39.43-4.63-4.52-9.48-6.08-13.59-4.95h0Z"/></g></g><path class="cls-13" d="m106.52,27.61c3.27-12.68,13.48-15.58,22.8-6.48,9.32,9.1,14.23,26.75,10.96,39.43-3.27,12.68-13.48,15.57-22.8,6.48-9.32-9.1-14.23-26.75-10.96-39.43Z"/></g><path class="cls-19" d="m194.23,15.65c-.26-.54-.53-1.08-.81-1.61l-57.62,16.01c.28.53.54,1.06.8,1.61l57.63-16.01Z"/><g class="cls-18"><path class="cls-11" d="m176.62,44.22c-.84-1.08-2.39-1.6-4.46-1.31-4.1.58-8.67,4.16-10.2,7.99-.76,1.9-.63,3.51.2,4.57l89.55,114.5c-.83-1.06-.96-2.67-.2-4.57,1.53-3.83,6.1-7.41,10.2-7.99,2.07-.29,3.62.23,4.46,1.31l-89.55-114.5Z"/><path class="cls-15" d="m261.71,157.41c4.1-.58,6.19,2.05,4.66,5.88-1.53,3.83-6.1,7.41-10.2,7.99-4.1.58-6.19-2.05-4.66-5.88,1.53-3.83,6.1-7.41,10.2-7.99Z"/></g><path class="cls-20" d="m164.58,47.04l73.31,93.28,2.86-2.25-73.34-93.32c-1.02.65-1.99,1.42-2.83,2.28Z"/><g class="cls-18"><g class="cls-18"><g class="cls-18"><path class="cls-10" d="m170.69,111.68l-18.48-18.9c-1.32-1.35-3.51-1.83-6.29-1.14-5.58,1.39-11.39,7.03-12.97,12.6-.79,2.8-.37,5.05.97,6.41l18.48,18.91c-1.33-1.36-1.76-3.61-.97-6.41,1.58-5.56,7.39-11.2,12.97-12.6,2.77-.69,4.97-.21,6.29,1.14h0Z"/></g></g><path class="cls-13" d="m171.66,118.09c1.58-5.56-1.67-8.95-7.25-7.55-5.58,1.39-11.39,7.03-12.97,12.6-1.58,5.56,1.67,8.95,7.25,7.55,5.59-1.39,11.39-7.03,12.97-12.6Z"/></g><path class="cls-19" d="m140.87,93.97c.22-.15.44-.29.67-.43l18.41,18.95c-.22.14-.45.28-.66.43l-18.41-18.96Z"/><g class="cls-18"><path class="cls-11" d="m141.21,108.79c.56-.22,1.27-.08,1.99.5,1.44,1.14,2.38,3.52,2.11,5.32-.13.9-.54,1.48-1.1,1.7l-59.69,23.71c.55-.22.96-.8,1.1-1.7.27-1.8-.67-4.18-2.11-5.32-.72-.57-1.43-.72-1.99-.5l59.69-23.71Z"/><path class="cls-15" d="m83.52,133c-1.44-1.14-2.82-.6-3.09,1.2-.27,1.8.67,4.18,2.11,5.32,1.44,1.14,2.82.6,3.09-1.2.27-1.8-.67-4.18-2.11-5.32Z"/></g><path class="cls-20" d="m145.18,112.56l-48.76,19.23-.59-1.49,48.78-19.24c.25.47.44.99.57,1.5Z"/><path class="cls-12" d="m191.23,129.99s-49.28,54.45-82.92,97.9l38.46,28.37c24.11-32.15,46.87-66.04,68.47-101.42-6.5-10.57-14.29-19.17-24.01-24.85Z"/><path class="cls-12" d="m247.09,134.43s-5.88,7.64-13.38,12.97c-8.43,5.99-19.37,7.7-19.37,7.7l-17.92-20.53,18.21-26.53,32.46,26.39Z"/><path class="cls-12" d="m246.27,123.76s1.54-.49,2.98,1.11c1.36,1.52,3.1,6.9-1.22,9.38-2.87,1.65-16.83,2.61-18.65-.43-1.69-2.83,13.17-9.91,16.89-10.06Z"/><path class="cls-12" d="m231.1,118.42c2.65-2.12,8.21-6.75,11.74-6.58,3.1.15,4.93,2.92,5.6,4.55.74,1.8,1.09,5.16-2.17,7.37s-15.86,10.81-21.5,4.77c-3.51-3.77,3.68-7.99,6.34-10.11Z"/><path class="cls-12" d="m226.47,107.77s5.89-5.83,8.28-6.36c2.61-.59,5.49,2.14,6.95,4.58s1.89,5.44.37,6.76-12.03,7.2-12.03,7.2l-3.57-12.18Z"/><path class="cls-12" d="m210.51,101.46s10.85-9.14,14.27-10.13c3.12-.91,6.17.48,8.25,2.82s2.89,5.67,1.72,7.25-11.31,8.38-11.31,8.38l-12.93-8.32Z"/><path class="cls-12" d="m190.94,130.29s.7-15.19,5.83-24.35c2.66-4.76,5.63-6.34,7.14-6.35s16.62.53,20.67,3.59c2.43,1.83,11.12,20.26,5.81,22.71-3.11,1.44-14.14-11.93-14.14-11.93l-17.16,23.44-8.15-7.11Z"/><path class="cls-11" d="m252.09,146.37l-5.15-11.78s-10.25,2.59-13.91.91l-3.66-1.68,1.6-2.93-5.77-1.66-1.12-2.06.86-3.86-1.99-1.85-3.85,6.84,14.6,19.1,18.37-1.04Z"/><path class="cls-14" d="m212.16,153.5c1.44,1.07,2.71,1.55,3.94,1.54.13,0,.24-.11.24-.24,0-.13-.11-.24-.24-.24-1.61.02-3.31-.91-5.5-3.03-.09-.09-.25-.09-.34,0-.09.1-.09.25,0,.34.67.65,1.3,1.19,1.9,1.63Z"/><path class="cls-14" d="m204.57,137.89c.05.04.12.06.19.04,7.83-1.38,13.95-6.93,18.21-16.47.05-.12,0-.26-.12-.32-.12-.05-.27,0-.32.12-4.19,9.39-10.19,14.84-17.85,16.19-.13.02-.22.15-.2.28.01.06.05.12.09.15Z"/><path class="cls-14" d="m204.06,117.94c.06.04.14.06.22.04l11.89-3.74c1.11,1.41,9.82,12.3,14.25,11.89.57-.05,1.33-.41,1.69-1.78,1.27-4.86-3.4-18.43-7.28-21.3-.04-.03-.07-.05-.11-.08-4.77-3.28-20.15-3.62-20.8-3.63-.13,0-.24.1-.25.24,0,.13.1.24.24.25.16,0,15.89.35,20.54,3.55,3.78,2.6,8.44,16.06,7.19,20.85-.23.89-.66,1.36-1.27,1.42-4.37.41-13.83-11.72-13.92-11.84-.06-.08-.17-.11-.26-.08l-12.05,3.79c-.13.04-.2.18-.16.3.02.05.05.09.09.12Z"/><path class="cls-14" d="m229.91,123.16c.63.47,1.32.77,2.04.83.13.01.25-.09.26-.22.01-.13-.09-.25-.22-.26-2.52-.22-4.78-3.94-5.11-7.14-.2-1.95,3.02-3.45,3.06-3.46.12-.06.17-.2.12-.32-.06-.12-.2-.17-.32-.12-.15.07-3.57,1.67-3.34,3.95.26,2.53,1.65,5.36,3.52,6.74Z"/><path class="cls-14" d="m216.11,114.15c.06.04.13.06.21.04.13-.03.21-.17.17-.3-.72-2.72.61-5.94.62-5.97.05-.12,0-.26-.13-.32-.12-.05-.26,0-.32.13-.06.14-1.41,3.4-.65,6.28.01.05.05.1.09.13Z"/><path class="cls-14" d="m227.67,106.91c.08.06.2.06.29,0l6.94-5.31c.11-.08.13-.23.05-.34-.08-.11-.23-.13-.34-.05l-6.94,5.31c-.11.08-.13.23-.05.34.01.02.03.03.05.05Z"/><path class="cls-14" d="m231.5,118.09c.07.05.18.06.26.02l11.1-6.13c.12-.06.16-.21.1-.33-.06-.12-.21-.16-.33-.1l-11.1,6.13c-.12.06-.16.21-.1.33.02.03.04.06.07.08Z"/><path class="cls-14" d="m229.77,134.46c1.51,1.12,4.68,1.43,7.35,1.47,3.77.06,8.01-.4,9.93-.88.13-.03.21-.16.18-.29-.03-.13-.16-.21-.29-.18-3.85.95-16.58,1.75-17.53-1.34-.22-.72.53-2.43,8.01-5.77,4.34-1.94,8.87-3.47,8.91-3.49.13-.04.19-.18.15-.31s-.18-.19-.31-.15c-1.88.64-18.31,6.32-17.23,9.86.13.42.42.78.82,1.07Z"/><path class="cls-14" d="m225.21,129.23c1.53,1.13,3.83,1.87,5.77,1.66.13-.01.23-.13.21-.27-.01-.13-.13-.23-.27-.21-2.65.29-6.16-1.37-6.83-3.23-.64-1.77,1.17-3.49,1.19-3.51.1-.09.1-.24.01-.34-.09-.1-.24-.1-.34-.01-.08.08-2.06,1.95-1.31,4.03.25.68.82,1.34,1.57,1.89Z"/><path class="cls-14" d="m205.36,155.33s.08.04.13.05c.13,0,.25-.09.26-.22l.29-4.27c0-.13-.09-.25-.22-.26-.13,0-.25.09-.26.22l-.29,4.27c0,.09.03.16.1.21Z"/><path class="cls-14" d="m199.99,160.95s.08.05.14.05c.13,0,.25-.1.25-.23l.24-6.96c0-.13-.1-.24-.23-.25-.13,0-.25.1-.25.23l-.24,6.96c0,.08.04.16.1.2Z"/><ellipse cx="117.65" cy="153.48" rx="12.38" ry="2.9" transform="translate(-27.25 25.41) rotate(-11.06)"/><path class="cls-6" d="m124.5,132.05l4.75,21.12c-7.01,3.03-13.85,4.27-20.54,3.86l-3.02-19.29c5.71-4.98,12.12-6.28,18.81-5.69Z"/><path class="cls-3" d="m105.49,155.66c3.12,27.94,7.28,55.34,13.84,85.86l27.55-5.38c-4.35-29.25-10.07-57.78-17.09-85.1-1.85,4.18-20.51,7.96-24.3,4.63Z"/><path d="m120.46,169.27c-5.26,1.03-10.55,1.07-13.41-.28-.07-.03-.1-.11-.07-.18s.11-.1.18-.07c5.27,2.49,18.89.17,25.12-4.29.06-.04.15-.03.19.03.04.06.03.15-.03.19-2.92,2.09-7.45,3.71-11.99,4.6Z"/><path class="cls-6" d="m97.22,126.13s.62,5.42,2.69,10.19c2.34,5.36,7.14,9.38,7.14,9.38l14.68-4.72-1.08-18.17-23.43,3.31Z"/><path class="cls-6" d="m100.74,121.2s-.61-.69-1.77-.33c-1.1.34-3.33,2.64-2.81,4.49s8.06,6.59,9.83,5.64c1.64-.88-3.49-8.65-5.25-9.8Z"/><path class="cls-6" d="m109.64,123.04c-.67-1.8-2.01-5.67-3.77-6.62-1.55-.83-3.24-.02-4.04.57-.88.66-2.03,2.18-1.1,4.2s4.53,9.87,9.02,8.59c2.8-.8.55-4.95-.12-6.75Z"/><path class="cls-6" d="m115,119.23s-1.16-4.54-2.15-5.5c-1.09-1.05-3.28-.56-4.71.19s-2.5,2.08-2.15,3.17,3.72,7,3.72,7l5.29-4.86Z"/><path class="cls-6" d="m124.57,120.84s-2.59-7.59-3.96-9.08c-1.25-1.35-3.13-1.57-4.82-1.04s-3.05,1.9-2.95,3.01,3.04,7.36,3.04,7.36l8.69-.25Z"/><path class="cls-6" d="m125.64,140.52s4.09-7.56,4.28-13.5c.1-3.08-.88-4.71-1.61-5.16s-8.21-4.59-11.06-4.29c-1.71.18-11.3,6.57-9.44,9.31,1.09,1.6,10.33-1.66,10.33-1.66l1.47,16.37,6.02-1.06Z"/><path class="cls-11" d="m92.34,131.58l4.78-4.91s5.27,4.37,7.36,4.46,1.83-.21,1.83-.21l.06-1.6,2.44.67,1.84-.46.54-2.33,1.5-.32-.19,2.22-13.48,5.15-6.68-2.68Z"/><path class="cls-5" d="m109.54,145.43c-1.51.3-2.55.21-3.32-.26-.06-.04-.08-.12-.04-.19.04-.06.12-.08.19-.04.78.48,1.87.52,3.55.14.07-.02.15.03.16.1.02.07-.03.15-.1.16-.15.03-.3.07-.44.09Z"/><path class="cls-5" d="m116.83,140.22s-.08,0-.12-.03c-3.39-2.95-4.74-7.43-4.02-13.3,0-.08.08-.13.15-.12.08,0,.13.08.12.15-.71,5.77.61,10.17,3.92,13.06.06.05.06.14.01.19-.02.02-.05.04-.08.04Z"/><path class="cls-5" d="m122.9,130.7s-.1,0-.13-.04l-4.67-5.28c-.95.36-8.35,3.1-10.37,1.6-.26-.19-.53-.59-.3-1.36.81-2.75,7.14-8.04,9.82-8.2,3.27-.2,10.82,4.13,11.14,4.31.07.04.09.12.05.19-.04.07-.12.09-.19.05-.08-.04-7.8-4.47-10.99-4.28-2.6.16-8.78,5.32-9.57,8-.15.5-.08.85.2,1.06,2,1.47,10.12-1.64,10.2-1.67.05-.02.11,0,.15.04l4.73,5.35c.05.06.04.14-.01.19-.02.02-.04.03-.06.03Z"/><path class="cls-5" d="m109.17,125.64c-.56.11-1.11.08-1.56-.15-.07-.03-.1-.12-.06-.18.03-.07.12-.1.18-.06,1.28.63,3.47-.52,4.56-1.96.67-.88-.46-2.55-.47-2.57-.04-.06-.03-.15.04-.19.06-.04.15-.03.19.04.05.08,1.25,1.85.46,2.89-.79,1.05-2.12,1.95-3.34,2.19Z"/><path class="cls-5" d="m118.17,125.35s-.09,0-.12-.04c-.05-.05-.05-.14,0-.19,1.14-1.11,1.44-3.05,1.44-3.07.01-.07.08-.13.15-.12.07.01.13.08.12.15-.01.08-.31,2.06-1.52,3.23-.02.02-.04.03-.07.04Z"/><path class="cls-5" d="m114.68,118.47c-.06.01-.13-.02-.15-.08l-1.81-4.6c-.03-.07,0-.15.08-.18.07-.03.15,0,.18.08l1.81,4.6c.03.07,0,.15-.08.18,0,0-.02,0-.02,0Z"/><path class="cls-5" d="m109.56,122.77c-.06.01-.11-.01-.14-.07l-3.59-6.21c-.04-.07-.02-.15.05-.19.06-.04.15-.02.19.05l3.59,6.21c.04.07.02.15-.05.19-.01,0-.03.01-.04.02Z"/><path class="cls-5" d="m105.73,131.2c-2.21.43-7.43-3.16-8.6-4.33-.05-.05-.05-.14,0-.19.05-.05.14-.05.19,0,1.54,1.54,7.43,5.29,8.81,4.05.32-.29.45-1.33-2.2-5.13-1.54-2.2-3.28-4.27-3.3-4.29-.05-.06-.04-.14.02-.19.06-.05.14-.04.19.02.72.86,7.03,8.41,5.47,9.81-.16.14-.36.23-.59.28Z"/><path class="cls-5" d="m109.7,129.95c-1.12.22-2.66-.09-3.63-.83-.06-.05-.07-.13-.03-.19.05-.06.13-.07.19-.03,1.2.91,3.38,1.13,4.25.43.83-.67.45-2.03.45-2.05-.02-.07.02-.15.09-.17.07-.02.15.02.17.09.02.06.43,1.55-.54,2.33-.25.2-.58.33-.96.41Z"/><path class="cls-5" d="m124.56,151.72h0c-.07.01-.15-.04-.16-.11l-.78-4.64c-.01-.07.04-.14.11-.16.07-.01.15.04.16.11l.78,4.64c.01.07-.04.14-.11.16Z"/><path class="cls-8" d="m181.12,310.44c-67.66,8.83-165.88-11.43-171.1-51.41-5.22-39.98,76.02-78.25,143.68-87.08,67.66-8.83,161.15-2.54,174.77,40.54,13.64,43.12-79.69,89.12-147.35,97.96Z"/><path class="cls-17" d="m295.63,200.12c46.61,21.85,37.7,46.52,18.91,67.13-33.26,36.5-250.27,52.86-286.13,8.82-19.45-23.89-20.22-46.22,13.22-68.98,40.82-27.78,201.59-31.54,254-6.97Z"/><g class="cls-16"><path class="cls-4" d="m44.55,264.07l.06-6.02v-33.73l-.06-6.02h15.68l-.06,6.02v33.73l.06,6.02h-15.68Z"/><path class="cls-4" d="m95.24,218.31h13.63l-.06,6.02v33.73l.06,6.02h-10.75l-16.83-22.33h-.13l.13,4.1v12.22l.06,6.02h-13.7l.06-6.02v-33.73l-.06-6.02h13.31l14.33,18.94h.13l-.13-4.03v-8.9l-.06-6.02Z"/><path class="cls-4" d="m116.3,264.07l.06-6.02v-33.73l-.06-6.02h15.68l-.06,6.02v33.73l.06,6.02h-15.68Z"/><path class="cls-4" d="m181.7,248.9c-1.09,5.76-6.4,16.38-21.57,16.38-13.12,0-23.1-8.06-23.1-23.74,0-14.72,8.96-24.45,23.42-24.45s19.52,9.28,20.86,16.96l-14.91,1.41c-.9-4.16-2.5-7.74-6.21-7.74s-5.95,3.71-5.95,13.38c0,10.82,2.69,13.57,6.27,13.57,3.39,0,5.63-2.69,6.53-8.58l14.66,2.82Z"/><path class="cls-4" d="m185.87,264.07l.06-6.02v-33.73l-.06-6.02h15.68l-.06,6.02v33.73l.06,6.02h-15.68Z"/><path class="cls-4" d="m218.12,264.07h-14.08l16.19-45.76h16.45l15.55,45.76h-16.83l-1.92-7.23h-13.12l-2.24,7.23Zm5.31-17.21h7.42l-3.33-12.93h-.13l-3.97,12.93Z"/><path class="cls-4" d="m280.2,264.07l-5.76-16.51h-3.78v10.5l.06,6.02h-15.68l.06-6.02v-33.73l-.06-6.02h23.55c8.7,0,17.66,3.07,17.66,14.4,0,6.21-2.82,10.17-6.98,12.48l8.13,18.75v.13h-17.21Zm-9.54-27.07h5.25c2.88,0,5.06-.96,5.06-4.03s-2.18-4.1-5.25-4.1h-5.06v8.13Z"/></g></g></svg>