<?xml version="1.0" encoding="UTF-8"?>
<svg id="Camada_2" data-name="Camada 2" xmlns="http://www.w3.org/2000/svg" viewBox="0 0 71.81 71.81">
  <defs>
    <style>
      .cls-1 {
        fill: #008089;
        stroke: #ff9500;
        stroke-miterlimit: 10;
        stroke-width: 2.5px;
      }

      .cls-2 {
        fill: #fff;
        stroke-width: 0px;
      }
    </style>
  </defs>
  <g id="OBJECTS">
    <g>
      <circle class="cls-1" cx="35.91" cy="35.91" r="34.66"/>
      <g>
        <path class="cls-2" d="m42.19,55.26h-13.19c-.67,0-1.21-.54-1.21-1.21s.54-1.21,1.21-1.21h13.19c.67,0,1.21.54,1.21,1.21s-.54,1.21-1.21,1.21Z"/>
        <path class="cls-2" d="m35.6,55.26c-.67,0-1.21-.54-1.21-1.21v-9.92c0-.67.54-1.21,1.21-1.21s1.21.54,1.21,1.21v9.92c0,.67-.54,1.21-1.21,1.21Z"/>
        <path class="cls-2" d="m35.66,44.61h-.13c-3.03,0-5.88-1.18-8.03-3.33-2.14-2.14-3.32-4.99-3.32-8.03,0-.67.54-1.21,1.21-1.21s1.21.54,1.21,1.21c0,2.39.93,4.63,2.61,6.32,1.69,1.68,3.93,2.61,6.31,2.61h.13c2.38,0,4.63-.93,6.31-2.61,1.69-1.69,2.61-3.93,2.61-6.31,0-.67.54-1.21,1.21-1.21s1.21.54,1.21,1.21c0,3.03-1.18,5.88-3.32,8.02-2.14,2.15-5,3.33-8.03,3.33h0Z"/>
        <path class="cls-2" d="m42.19,32.86v.4c0,3.61-2.92,6.53-6.53,6.53h-.13c-3.61,0-6.53-2.92-6.53-6.53v-.4h3.53v-1.55h-3.53v-1.56h3.53v-1.54h-3.53v-1.56h3.53v-1.54h-3.53v-1.56h3.53v-1.55h-3.53v-.29c0-3.61,2.92-6.53,6.53-6.53h.13c3.61,0,6.53,2.92,6.53,6.53v.29h-3.53v1.55h3.53v1.56h-3.53v1.54h3.53v1.56h-3.53v1.54h3.53v1.56h-3.53v1.55h3.53Z"/>
      </g>
    </g>
  </g>
</svg>