<?xml version="1.0" encoding="UTF-8"?>
<svg id="Camada_2" data-name="Camada 2" xmlns="http://www.w3.org/2000/svg" viewBox="0 0 152.8 137.37">
  <defs>
    <style>
      .cls-1 {
        fill: #fff;
      }

      .cls-1, .cls-2 {
        stroke-width: 0px;
      }

      .cls-2 {
        fill: #00a7b3;
      }
    </style>
  </defs>
  <g id="OBJECTS">
    <path class="cls-2" d="m152.8,38.58l-38.71,98.79-35.27-13.46s-5.57-2.98-.11-9.22c6.26-5.39,16.35-19.57-.12-30.04-13.66-4.81-24.39,2.77-22.32,23.03-2.15,6.35-7.04,5.4-9.62,3.6-3.1-.83-31.36-12.62-31.36-12.62l12.19-32.9c1.01-2.72.3-5.89-1.98-7.69-1.21-.96-2.91-1.59-5.27-1.33-7.08.79-22.25,2.67-20.02-18.62,6.52-16.08,17.49-14.79,29.01-3.63,4.13,1.87,5.48,4.21,8.27,2.15,1.25-.92,2.13-2.24,2.66-3.7C43.23,24.39,52.69,0,52.69,0l100.11,38.58Z"/>
    <g>
      <path class="cls-1" d="m47.78,56.45c.18-.49.15-.94-.09-1.33-.25-.39-.77-.91-1.56-1.54-.79-.63-1.4-1.19-1.82-1.67-1.14-1.31-1.47-2.63-.98-3.94.26-.68.68-1.22,1.26-1.61.59-.39,1.3-.6,2.13-.63.83-.03,1.7.12,2.6.46.9.34,1.65.8,2.23,1.4.58.59.96,1.26,1.13,2,.17.74.11,1.49-.18,2.25l-2.61-.98c.22-.58.2-1.1-.04-1.56-.24-.46-.7-.81-1.36-1.06-.64-.24-1.18-.29-1.64-.15-.45.14-.76.43-.93.87-.16.41-.08.83.23,1.27.31.43.82.92,1.54,1.47,1.31,1,2.19,1.96,2.62,2.88.43.91.46,1.86.09,2.85-.41,1.09-1.15,1.8-2.21,2.11s-2.29.21-3.69-.32c-.97-.36-1.79-.88-2.46-1.53-.67-.66-1.09-1.37-1.28-2.15-.19-.78-.13-1.57.18-2.39l2.61.98c-.52,1.4.05,2.41,1.72,3.03.62.23,1.15.29,1.59.17.44-.12.75-.41.92-.86Z"/>
      <path class="cls-1" d="m52.16,56.42c.35-.93.84-1.7,1.47-2.29.63-.59,1.36-.96,2.19-1.11.82-.15,1.68-.05,2.57.28,1.27.48,2.16,1.25,2.67,2.33.51,1.08.56,2.3.16,3.67l-.23.65c-.54,1.44-1.38,2.45-2.51,3.02-1.13.57-2.38.6-3.73.09-1.36-.51-2.27-1.35-2.75-2.52-.48-1.17-.44-2.5.12-4l.04-.11Zm2.44,1.12c-.34.89-.42,1.64-.27,2.24.16.6.55,1.02,1.18,1.25.61.23,1.17.17,1.69-.17.52-.34.97-1.02,1.35-2.05.33-.88.41-1.62.25-2.23-.16-.61-.55-1.03-1.17-1.26-.61-.23-1.18-.17-1.69.18s-.96,1.03-1.34,2.03Z"/>
      <path class="cls-1" d="m65.41,64.74c.46.17.89.19,1.27.04.39-.15.66-.43.83-.85l2.35.88c-.24.64-.64,1.15-1.18,1.55-.54.4-1.16.64-1.87.71-.71.07-1.42-.03-2.13-.3-1.34-.5-2.24-1.33-2.7-2.47-.46-1.15-.4-2.47.17-3.98l.06-.17c.54-1.45,1.36-2.46,2.46-3.03,1.09-.57,2.31-.61,3.66-.1,1.18.44,1.99,1.13,2.45,2.06.46.94.48,1.96.08,3.08l-2.35-.88c.17-.49.17-.95,0-1.36-.17-.41-.5-.71-.97-.89-.58-.22-1.11-.17-1.56.14-.46.31-.87.95-1.23,1.91l-.1.26c-.36.97-.48,1.72-.34,2.25.14.54.51.92,1.11,1.14Z"/>
      <path class="cls-1" d="m72.73,69.6l-2.52-.95,3.53-9.4,2.52.95-3.53,9.4Zm1.77-12.83c.14-.38.38-.64.73-.79.34-.15.73-.14,1.17.02.43.16.73.41.89.75.16.34.17.7.03,1.07-.14.38-.39.65-.74.79-.35.15-.74.14-1.16-.02-.42-.16-.72-.41-.88-.75-.17-.34-.18-.7-.03-1.08Z"/>
      <path class="cls-1" d="m76.21,65.45c.35-.93.84-1.7,1.47-2.29.63-.59,1.36-.97,2.19-1.11.82-.15,1.68-.05,2.57.28,1.27.48,2.16,1.25,2.67,2.33.51,1.08.56,2.3.16,3.67l-.23.65c-.54,1.44-1.38,2.45-2.51,3.02-1.13.57-2.38.6-3.73.09-1.36-.51-2.27-1.35-2.75-2.52-.48-1.17-.44-2.5.12-4l.04-.11Zm2.44,1.12c-.34.89-.42,1.64-.26,2.24.16.6.55,1.02,1.18,1.25.61.23,1.17.17,1.69-.17.52-.34.97-1.02,1.35-2.05.33-.88.41-1.62.25-2.23-.16-.61-.55-1.03-1.17-1.26-.61-.23-1.18-.17-1.69.18s-.96,1.03-1.34,2.03Z"/>
      <path class="cls-1" d="m87.51,75.15l-2.52-.95,5.01-13.34,2.52.95-5.01,13.34Z"/>
      <path class="cls-1" d="m90.98,70.99c.35-.93.84-1.7,1.47-2.29.63-.59,1.36-.96,2.19-1.11.82-.15,1.68-.05,2.57.28,1.27.47,2.16,1.25,2.67,2.33.51,1.08.56,2.3.16,3.67l-.23.65c-.54,1.44-1.38,2.45-2.51,3.02-1.13.57-2.38.6-3.73.09-1.36-.51-2.27-1.35-2.75-2.52-.48-1.17-.44-2.5.12-4l.04-.11Zm2.44,1.12c-.33.89-.42,1.64-.27,2.24.16.6.55,1.01,1.18,1.25.61.23,1.17.17,1.69-.17.52-.34.97-1.02,1.35-2.05.33-.88.41-1.62.25-2.23-.16-.61-.55-1.03-1.17-1.26-.61-.23-1.18-.17-1.69.18s-.96,1.03-1.34,2.03Z"/>
      <path class="cls-1" d="m101.06,74.79c.54-1.44,1.32-2.47,2.34-3.1s2.11-.72,3.27-.28c1.03.39,1.7,1.04,2.01,1.96l.44-.85,2.28.85-3.41,9.08c-.31.82-.76,1.47-1.37,1.93-.6.47-1.3.73-2.1.8-.8.06-1.65-.07-2.56-.42-.69-.26-1.31-.65-1.86-1.17-.55-.52-.91-1.06-1.09-1.62l1.69-1.11c.36.94.99,1.57,1.88,1.91.67.25,1.25.27,1.75.05s.88-.65,1.12-1.31l.19-.5c-.82.44-1.71.48-2.65.12-1.13-.42-1.88-1.21-2.24-2.35-.37-1.14-.27-2.45.27-3.91l.04-.1Zm2.44,1.13c-.32.85-.4,1.59-.24,2.2.16.61.54,1.03,1.13,1.25.76.29,1.42.21,1.96-.25l1.49-3.96c-.12-.7-.55-1.19-1.3-1.47-.6-.23-1.17-.16-1.7.21-.53.36-.98,1.04-1.35,2.01Z"/>
      <path class="cls-1" d="m112.43,84.51l-2.52-.95,3.53-9.4,2.52.95-3.53,9.4Zm1.77-12.83c.14-.38.38-.64.73-.79s.73-.14,1.17.02c.43.16.72.41.89.75.16.34.17.7.03,1.07-.14.38-.39.65-.74.79-.35.15-.74.14-1.16-.02-.42-.16-.72-.41-.88-.75-.17-.34-.18-.7-.03-1.08Z"/>
      <path class="cls-1" d="m119.95,87.33c-.03-.27-.01-.58.06-.94-.86.45-1.78.49-2.75.12-.92-.35-1.58-.9-1.99-1.66-.41-.76-.46-1.54-.15-2.36.37-1,1.03-1.62,1.97-1.88s2.11-.12,3.5.39l1.16.43.2-.54c.16-.43.18-.82.06-1.17-.12-.34-.43-.61-.91-.79-.42-.16-.79-.18-1.11-.07-.32.11-.54.35-.67.7l-2.51-.94c.2-.54.56-.98,1.07-1.32.51-.34,1.12-.52,1.83-.56s1.45.09,2.22.38c1.16.44,1.97,1.07,2.43,1.91.46.84.5,1.78.1,2.84l-1.53,4.07c-.33.89-.46,1.62-.39,2.16l-.05.15-2.54-.95Zm-1.42-2.53c.37.14.74.18,1.12.14.37-.05.69-.18.94-.4l.61-1.62-.94-.35c-1.26-.47-2.09-.29-2.5.55l-.06.14c-.12.31-.11.61.04.9.14.29.41.5.79.64Z"/>
    </g>
  </g>
</svg>