<?xml version="1.0" encoding="UTF-8"?>
<svg id="Camada_2" data-name="Camada 2" xmlns="http://www.w3.org/2000/svg" viewBox="0 0 124.08 155.23">
  <defs>
    <style>
      .cls-1 {
        fill: #b0274b;
      }

      .cls-1, .cls-2 {
        stroke-width: 0px;
      }

      .cls-2 {
        fill: #fff;
      }
    </style>
  </defs>
  <g id="OBJECTS">
    <path class="cls-1" d="m0,13.14L110.94,0l5.03,39.43s0,6.66-8.5,4.68c-8.12-3.13-26.28-5.45-27.83,15.03,0,0,0,0,0,.01,2.32,15.07,14.69,21.25,32.47,9.27,0,0,0,0,0,0,6.75-1.12,8.41,3.56,8.15,6.85-.01.18-.01.36.02.54.85,4.37,3.81,35.13,3.81,35.13l-39.43,5.41s-6.18,4.64-1.93,10.82,13.53,19.33-7.34,27.83c0,0,0,0-.01,0-18.16,1.93-22.41-8.89-17.78-25.13-.39-5.8,1.93-8.12-5.03-9.66-6.96,1.16-38.65,5.03-38.65,5.03L0,13.14Z"/>
    <g>
      <path class="cls-2" d="m35.77,93.96l-5.34.1.11,5.52-2.78.05-.26-13.51,8.79-.17.04,2.25-6.01.12.07,3.49,5.34-.1.04,2.24Z"/>
      <path class="cls-2" d="m37.72,86.81c0-.4.12-.74.38-1,.26-.27.63-.4,1.09-.41.46,0,.83.11,1.1.37.28.25.42.58.43.98,0,.41-.12.74-.39,1.01-.27.27-.63.4-1.08.41-.45,0-.82-.11-1.1-.37-.28-.25-.42-.59-.43-.99Zm3.09,12.58l-2.69.05-.19-10.04,2.69-.05.19,10.04Z"/>
      <path class="cls-2" d="m45.85,99.29l-2.69.05-.27-14.25,2.69-.05.27,14.25Z"/>
      <path class="cls-2" d="m47.54,94.14c-.02-1,.16-1.89.52-2.67.37-.79.91-1.4,1.62-1.84.71-.44,1.54-.67,2.5-.69,1.35-.03,2.47.37,3.34,1.18.87.81,1.37,1.93,1.5,3.35l.03.69c.03,1.54-.38,2.78-1.22,3.73-.84.95-1.99,1.44-3.43,1.46-1.45.03-2.61-.41-3.49-1.32-.88-.91-1.34-2.16-1.37-3.76v-.12Zm2.68.14c.02.95.21,1.68.58,2.18.37.5.89.74,1.55.73.65-.01,1.15-.27,1.51-.78.36-.51.52-1.31.5-2.4-.02-.94-.21-1.66-.59-2.16-.37-.51-.89-.75-1.55-.74-.66.01-1.16.28-1.51.8-.35.52-.51,1.31-.49,2.38Z"/>
      <path class="cls-2" d="m64.18,96.16c0-.33-.17-.58-.5-.77-.33-.18-.85-.34-1.57-.48-2.4-.46-3.61-1.45-3.64-2.97-.02-.89.34-1.64,1.07-2.25.73-.61,1.69-.93,2.88-.95,1.27-.02,2.3.26,3.07.84.78.59,1.17,1.36,1.19,2.32l-2.68.05c0-.38-.14-.7-.39-.94-.25-.25-.64-.36-1.17-.35-.45,0-.8.12-1.04.33s-.36.47-.36.79c0,.3.15.53.44.71.28.18.76.33,1.43.44.67.12,1.24.26,1.7.42,1.43.49,2.15,1.38,2.18,2.66.02.92-.36,1.66-1.14,2.24-.77.58-1.78.88-3.03.91-.84.02-1.59-.12-2.25-.41-.66-.29-1.18-.69-1.56-1.2-.38-.52-.58-1.08-.59-1.68l2.54-.05c.03.48.22.84.55,1.08.33.25.77.37,1.33.35.51-.01.9-.11,1.16-.31.26-.2.39-.46.38-.77Z"/>
      <path class="cls-2" d="m68.05,93.75c-.02-1,.16-1.89.52-2.67.37-.79.91-1.4,1.62-1.84.71-.44,1.54-.67,2.5-.69,1.35-.03,2.47.37,3.34,1.18.87.81,1.37,1.93,1.5,3.35l.03.69c.03,1.54-.38,2.78-1.22,3.73-.84.95-1.99,1.44-3.43,1.46-1.45.03-2.61-.41-3.49-1.32-.88-.91-1.34-2.16-1.37-3.76v-.12Zm2.68.14c.02.95.21,1.68.58,2.18.37.5.89.74,1.55.73.65-.01,1.15-.27,1.51-.78.36-.51.52-1.31.5-2.4-.02-.94-.21-1.66-.59-2.16-.37-.51-.89-.75-1.55-.74-.66.01-1.16.28-1.51.8-.35.52-.51,1.31-.49,2.38Z"/>
      <path class="cls-2" d="m80.03,98.63l-.16-8.07-1.49.03-.04-1.97,1.49-.03-.02-.85c-.02-1.12.28-2,.92-2.64.63-.63,1.53-.96,2.69-.98.37,0,.83.05,1.37.16v2.08c-.21-.05-.48-.07-.81-.07-1.01.02-1.5.5-1.48,1.45l.02.81,1.99-.04.04,1.97-1.99.04.16,8.07-2.69.05Z"/>
      <path class="cls-2" d="m85.85,85.88c0-.4.12-.74.38-1,.26-.26.63-.4,1.09-.41.46,0,.83.11,1.1.37.28.25.42.58.43.98,0,.41-.12.75-.39,1.01-.27.27-.63.4-1.08.41-.45,0-.82-.11-1.1-.37s-.42-.59-.43-.99Zm3.09,12.58l-2.69.05-.19-10.04,2.69-.05.19,10.04Z"/>
      <path class="cls-2" d="m96.96,98.3c-.13-.24-.22-.54-.29-.89-.64.74-1.47,1.11-2.51,1.13-.98.02-1.8-.25-2.46-.81-.66-.56-.99-1.27-1.01-2.13-.02-1.06.36-1.89,1.13-2.47.78-.58,1.91-.89,3.4-.93l1.23-.02v-.58c-.02-.46-.15-.83-.39-1.11-.24-.27-.62-.41-1.14-.4-.45,0-.8.12-1.05.35-.25.22-.38.52-.37.9l-2.68.05c-.01-.58.16-1.12.51-1.62.35-.5.85-.9,1.5-1.19.65-.29,1.38-.45,2.2-.46,1.24-.02,2.22.27,2.96.88.74.61,1.12,1.47,1.14,2.6l.08,4.35c.03.95.17,1.67.44,2.15v.16s-2.71.05-2.71.05Zm-2.25-1.82c.4,0,.76-.1,1.09-.29.33-.18.57-.42.73-.72l-.03-1.73-1,.02c-1.34.03-2.05.5-2.12,1.43v.16c0,.33.12.61.36.82.24.21.56.31.97.31Z"/>
    </g>
  </g>
</svg>