<?xml version="1.0" encoding="UTF-8"?>
<svg id="OBJECTS" xmlns="http://www.w3.org/2000/svg" viewBox="0 0 440.12 294.73">
  <defs>
    <style>
      .cls-1 {
        fill: #534741;
      }

      .cls-1, .cls-2, .cls-3, .cls-4, .cls-5, .cls-6, .cls-7, .cls-8, .cls-9, .cls-10, .cls-11, .cls-12 {
        stroke-width: 0px;
      }

      .cls-2 {
        fill: #4b505b;
      }

      .cls-3 {
        fill: #7a6849;
      }

      .cls-4 {
        fill: #262d3a;
      }

      .cls-5 {
        fill: #6d6e6f;
      }

      .cls-6 {
        fill: #3e3d3b;
      }

      .cls-7 {
        fill: #445365;
      }

      .cls-8 {
        fill: #40495f;
      }

      .cls-9 {
        fill: #cacccd;
      }

      .cls-10 {
        fill: #e0e0e1;
      }

      .cls-11 {
        fill: #dbdbdd;
      }

      .cls-12 {
        fill: #dbc6a4;
      }
    </style>
  </defs>
  <polygon class="cls-2" points="67.72 270.17 66.44 277.48 72.59 281.32 77.59 278.63 74 274.53 74.26 270.94 67.72 270.17"/>
  <polygon class="cls-2" points="35.16 270.17 33.88 277.48 40.03 281.32 45.03 278.63 41.44 274.53 41.7 270.94 35.16 270.17"/>
  <path class="cls-5" d="m39.21,201.15c.02,8.72.97,17.44,2.8,25.96.16.75.33,1.51.31,2.27-.02.91-.31,1.79-.6,2.65-4.16,12.71-7.36,25.74-9.57,38.93,3.11.66,6.21,1.31,9.32,1.97.57.12,1.18.24,1.72.03.59-.22.99-.78,1.33-1.31,8.19-12.9,6.53-30.38,15.26-42.92.92-1.32,1.96-2.6,2.48-4.13.67-1.97.39-4.12.1-6.17-.46-3.27-.91-6.54-1.37-9.82-.98,4.12,1.41,8.18,2.68,12.22,1.65,5.29,1.37,10.96,1.2,16.49-.38,12.61-.09,25.23.89,37.8,2.09-.16,4.18-.33,6.27-.49.76-.06,1.55-.13,2.2-.51,1.23-.72,1.62-2.27,1.9-3.67,2.84-14.02,5.68-28.03,8.52-42.05.68-3.35,1.36-6.73,1.42-10.16.11-6.33-1.92-12.49-3.92-18.5-14.25,2.77-28.93,3.34-43.36,1.7"/>
  <path class="cls-9" d="m42.49,98.15c-3.05-1.44-6.85.24-8.87,2.94s-2.68,6.16-3.21,9.49c-1.99,12.47-3.01,25.08-4.03,37.67-.81,10.01-1.62,20.02-2.43,30.03-.85,10.55-1.7,21.23,0,31.68,23.3-1.91,46.56-4.36,69.74-7.35,1.4-.18,2.98-.48,3.71-1.68.43-.71.46-1.59.45-2.42-.05-18.49-8.09-35.99-10.63-54.31,2.97.23,5.95.45,8.92.68.32-2.62.43-5.27.32-7.91-.02-.45-.05-.92-.3-1.29-.32-.47-.91-.66-1.45-.8-3.04-.81-6.2-1.23-9.11-2.44s-5.63-3.39-6.47-6.43c-.14-.49-.22-1.03-.04-1.51.26-.68.96-1.07,1.61-1.4,5.55-2.86,10.82-6.26,15.71-10.13.47-.37.95-.76,1.18-1.31.26-.61.18-1.3.1-1.96-.58-4.46-1.16-8.93-1.74-13.39-3.94,3.67-9.6,4.95-14.97,4.84s-10.64-1.45-15.94-2.38c-8.2-1.43-16.58-1.85-24.88-1.27"/>
  <path class="cls-3" d="m45.07,98.34c-3.33-.39-6.9-1.17-9.11-3.7-2.65-3.03-2.5-7.53-2.2-11.55.19-2.54.45-5.26,2.05-7.24,1.97-2.44,5.64-3.06,8.59-1.99s5.2,3.57,6.64,6.36c2.1,4.06,2.63,9.1.64,13.22-.79,1.64-1.99,3.38-1.46,5.12.09.29.23.58.23.88,0,.55-.42,1.02-.9,1.31-1.79,1.07-4.64-.27-4.55-2.36"/>
  <path class="cls-6" d="m41.56,70.41c-1.52-2.31-4.47-4.61-6.76-3.06-.9.62-1.42,1.72-2.39,2.23-1.71.91-3.76-.45-5.69-.33-2.81.18-4.64,3.4-7.43,3.81-.93.14-1.92-.05-2.8.3-2.23.9-1.88,4.09-2.53,6.42-1.32,4.72-7.93,7.33-7.43,12.21.19,1.82,1.4,3.38,1.75,5.18.32,1.63-.08,3.45.76,4.87,1,1.69,3.28,2.06,5.23,1.93s4.01-.54,5.8.24c2.11.92,3.22,3.19,4.49,5.11s3.34,3.81,5.58,3.27c2.63-.64,3.37-3.99,3.6-6.7.21-2.42.41-4.85.62-7.27.06-.7.12-1.43-.14-2.09-.44-1.13-1.71-1.76-2.16-2.89-.86-2.11,1.47-4.04,2.3-6.17.47-1.2.44-2.52.61-3.8.52-3.84,2.98-7.36,6.4-9.14,1.03.97,2.45,1.36,3.75,1.89,5.13,2.12,8.93,7.18,9.55,12.72.26,2.35,0,4.74.39,7.06s1.66,4.73,3.88,5.5c1.15.4,2.42.31,3.6,0,2.77-.75,5.18-2.76,6.41-5.37.5-1.07.82-2.24,1.48-3.22,1.29-1.91,3.86-3.15,3.98-5.45.08-1.41-.85-2.68-.96-4.09-.28-3.37,4.05-5.94,3.46-9.27-.36-2.04-2.55-3.32-4.61-3.35s-4,.88-5.86,1.78c-2.27-2.5-5.53-4.07-8.89-4.28-1.08-.07-2.19,0-3.24-.28-1.08-.28-2.03-.91-3.01-1.46-1.76-.98-3.78-1.72-5.76-1.36s-3.79,2.18-3.57,4.19"/>
  <polygon class="cls-3" points="94.64 139.2 102.35 136.63 105.28 137.92 107.85 139.2 107.85 144.71 103.08 148.01 94.64 142.32 94.64 139.2"/>
  <path class="cls-1" d="m403.27,87.21c3.13-.58,5.78-2.86,7.32-5.64,1.54-2.78,2.09-6.03,2.14-9.21.07-3.95-.88-8.37-4.16-10.57-1.43-.96-3.15-1.38-4.77-1.98-2.9-1.08-5.53-2.79-8.43-3.86s-6.31-1.43-8.96.15c-1.03.62-1.89,1.49-2.9,2.15-1.99,1.3-4.44,1.69-6.51,2.84s-3.82,3.65-2.84,5.81c.78,1.7,2.9,2.42,3.81,4.05.41.74.55,1.64,1.07,2.31.91,1.17,2.62,1.26,4.11,1.24,5.9-.06,11.79-.12,17.69-.18.69,0,1.44,0,2,.42.94.7.84,2.12.64,3.27-.57,3.34-1.14,6.68-1.71,10.02"/>
  <path class="cls-12" d="m399.01,95.44c-2.2.3-4.43.35-6.65.15.59-1.09.1-2.49-.72-3.42s-1.91-1.57-2.82-2.42c-2.1-1.95-3.06-4.84-3.47-7.68-.35-2.42-.36-4.93.42-7.24s2.43-4.41,4.69-5.34c2.75-1.14,5.99-.39,8.52,1.19,3.02,1.89,5.32,5.05,5.79,8.58.47,3.53-1.09,7.36-4.12,9.24-.44.27-.93.53-1.16.99-.18.35-.17.76-.17,1.15.02,1.43.04,2.86.06,4.29"/>
  <polygon class="cls-12" points="356.23 121.21 351.33 116.44 341.42 121.21 344.35 125.98 354.27 129.89 356.23 121.21"/>
  <polygon class="cls-4" points="427.43 268.39 429.95 274.64 420.09 278.61 414.33 278.52 414.63 273.93 421.83 267.23 427.43 268.39"/>
  <polygon class="cls-4" points="380.99 271.23 380.99 277.98 370.36 277.98 365.05 275.75 367.04 271.6 376.23 268.07 380.99 271.23"/>
  <path class="cls-8" d="m365.05,185.6c.11,28.1.48,56.2,1.1,84.29,3.89.81,16.4,1.39,20.36,1.71,2.56-26.55,2.53-54.5,3.67-81.14-.47,10.34-1.84,21.41-.82,31.72.32,3.2.22,6.47,1.1,9.57,1.03,3.62,3.32,6.74,5.59,9.74,3.61,4.77,7.29,9.48,10.97,14.2,3.46,4.43,6.92,8.86,10.37,13.29.4.51.83,1.04,1.44,1.25.68.23,1.42.02,2.11-.2,1.82-.58,3.65-1.16,5.47-1.74.53-.17,1.08-.36,1.43-.79.41-.52.4-1.26.36-1.92-.71-11.5-3.44-22.87-8.04-33.43-1.5-3.45-3.21-6.87-3.88-10.58-.54-2.99-.37-6.07-.11-9.1.59-6.88,1.68-13.71,3.24-20.43.19-.82.39-1.69.14-2.5-.26-.84-.97-1.46-1.64-2.04-3.09-2.63-6.3-5.33-10.2-6.45-2.88-.83-5.94-.74-8.95-.65-8.57.28-17.15.56-25.72.83-1.67.05-3.4.12-4.92.83s-2.79,2.22-2.67,3.89"/>
  <path class="cls-10" d="m357.52,115c8.1-5.6,14.2-14.14,23.26-18,6.39-2.72,13.55-2.79,20.5-2.81,3.25-.01,6.76.06,9.37,2,1.96,1.46,3.09,3.76,3.99,6.03,4.58,11.45,5.19,24.03,5.75,36.35.79,17.3,1.57,34.59,2.36,51.89-17.24-10.4-39.18-9.09-58.62-3.86-2.36-15.35-1.63-31.17,2.11-46.25.13-.53.27-1.09.11-1.62-.21-.73-.92-1.19-1.57-1.58-2.92-1.76-5.83-3.52-8.75-5.28-.48-.29-.97-.59-1.27-1.06-.31-.49-.37-1.1-.4-1.69-.25-4.92.96-9.91,3.44-14.17"/>
  <polygon class="cls-7" points="394.46 94.19 398.51 94.19 398.51 98.24 395.75 100.19 389.27 141.68 381.82 149.94 378.57 140.54 394.46 94.19"/>
  <path class="cls-11" d="m357.19,135.88l25.57,8.42c.36.12.73.18,1.1.18h11.1c1.07,0,2.08-.49,2.81-1.35l19.39-22.89c.85-1,1.21-2.38.96-3.73-.89-4.94-3.56-16.88-9.19-20.98-1.92-1.4-4.53-.5-5.51,1.8-3.4,7.98-8.26,21.14-10.37,26.91-.62,1.71-2.17,2.77-3.84,2.64l-30.24-2.36c-2-.16-3.77,1.41-4.07,3.6l-.42,3.06c-.29,2.1.86,4.11,2.7,4.71Z"/>
</svg>