<?xml version="1.0" encoding="UTF-8"?>
<svg id="Camada_2" data-name="Camada 2" xmlns="http://www.w3.org/2000/svg" viewBox="0 0 423.45 266.69">
  <defs>
    <style>
      .cls-1 {
        fill: #534741;
      }

      .cls-1, .cls-2, .cls-3, .cls-4, .cls-5, .cls-6, .cls-7, .cls-8, .cls-9, .cls-10, .cls-11, .cls-12, .cls-13, .cls-14, .cls-15, .cls-16, .cls-17, .cls-18 {
        stroke-width: 0px;
      }

      .cls-2 {
        fill: #4b505b;
      }

      .cls-3 {
        fill: #7a6849;
      }

      .cls-4 {
        fill: #262d3a;
      }

      .cls-5 {
        fill: #54926f;
      }

      .cls-6 {
        fill: #6d6e6f;
      }

      .cls-7 {
        fill: #3e3d3b;
      }

      .cls-8 {
        fill: #445365;
      }

      .cls-9 {
        fill: #40495f;
      }

      .cls-10 {
        fill: #446ea8;
      }

      .cls-11 {
        fill: #cacccd;
      }

      .cls-12 {
        fill: #e0e0e1;
      }

      .cls-13 {
        fill: #dbdbdd;
      }

      .cls-14 {
        fill: #dbc6a4;
      }

      .cls-15 {
        fill: #b0274b;
      }

      .cls-16 {
        fill: #fff;
      }

      .cls-17 {
        fill: #ecbf2d;
      }

      .cls-18 {
        fill: #f0f0ff;
      }
    </style>
  </defs>
  <g id="OBJECTS">
    <polygon class="cls-2" points="61.22 246.66 59.93 253.97 66.09 257.81 71.09 255.12 67.5 251.02 67.75 247.43 61.22 246.66"/>
    <polygon class="cls-2" points="28.66 246.66 27.38 253.97 33.53 257.81 38.53 255.12 34.94 251.02 35.2 247.43 28.66 246.66"/>
    <path class="cls-6" d="m32.71,177.64c.02,8.72.97,17.44,2.8,25.96.16.75.33,1.51.31,2.27-.02.91-.31,1.79-.6,2.65-4.16,12.71-7.36,25.74-9.57,38.93,3.11.66,6.21,1.31,9.32,1.97.57.12,1.18.24,1.72.03.59-.22.99-.78,1.33-1.31,8.19-12.9,6.53-30.38,15.26-42.92.92-1.32,1.96-2.6,2.48-4.13.67-1.97.39-4.12.1-6.17-.46-3.27-.91-6.54-1.37-9.82-.98,4.12,1.41,8.18,2.68,12.22,1.65,5.29,1.37,10.96,1.2,16.49-.38,12.61-.09,25.23.89,37.8,2.09-.16,4.18-.33,6.27-.49.76-.06,1.55-.13,2.2-.51,1.23-.72,1.62-2.27,1.9-3.67,2.84-14.02,5.68-28.03,8.52-42.05.68-3.35,1.36-6.73,1.42-10.16.11-6.33-1.92-12.49-3.92-18.5-14.25,2.77-28.93,3.34-43.36,1.7"/>
    <path class="cls-11" d="m35.99,74.64c-3.05-1.44-6.85.24-8.87,2.94s-2.68,6.16-3.21,9.49c-1.99,12.47-3.01,25.08-4.03,37.67-.81,10.01-1.62,20.02-2.43,30.03-.85,10.55-1.7,21.23,0,31.68,23.3-1.91,46.56-4.36,69.74-7.35,1.4-.18,2.98-.48,3.71-1.68.43-.71.46-1.59.45-2.42-.05-18.49-8.09-35.99-10.63-54.31,2.97.23,5.95.45,8.92.68.32-2.62.43-5.27.32-7.91-.02-.45-.05-.92-.3-1.29-.32-.47-.91-.66-1.45-.8-3.04-.81-6.2-1.23-9.11-2.44s-5.63-3.39-6.47-6.43c-.14-.49-.22-1.03-.04-1.51.26-.68.96-1.07,1.61-1.4,5.55-2.86,10.82-6.26,15.71-10.13.47-.37.95-.76,1.18-1.31.26-.61.18-1.3.1-1.96-.58-4.46-1.16-8.93-1.74-13.39-3.94,3.67-9.6,4.95-14.97,4.84s-10.64-1.45-15.94-2.38c-8.2-1.43-16.58-1.85-24.88-1.27"/>
    <path class="cls-3" d="m38.57,74.83c-3.33-.39-6.9-1.17-9.11-3.7-2.65-3.03-2.5-7.53-2.2-11.55.19-2.54.45-5.26,2.05-7.24,1.97-2.44,5.64-3.06,8.59-1.99s5.2,3.57,6.64,6.36c2.1,4.06,2.63,9.1.64,13.22-.79,1.64-1.99,3.38-1.46,5.12.09.29.23.58.23.88,0,.55-.42,1.02-.9,1.31-1.79,1.07-4.64-.27-4.55-2.36"/>
    <path class="cls-7" d="m35.05,46.9c-1.52-2.31-4.47-4.61-6.76-3.06-.9.62-1.42,1.72-2.39,2.23-1.71.91-3.76-.45-5.69-.33-2.81.18-4.64,3.4-7.43,3.81-.93.14-1.92-.05-2.8.3-2.23.9-1.88,4.09-2.53,6.42C6.14,61-.47,63.61.03,68.49c.19,1.82,1.4,3.38,1.75,5.18.32,1.63-.08,3.45.76,4.87,1,1.69,3.28,2.06,5.23,1.93s4.01-.54,5.8.24c2.11.92,3.22,3.19,4.49,5.11s3.34,3.81,5.58,3.27c2.63-.64,3.37-3.99,3.6-6.7.21-2.42.41-4.85.62-7.27.06-.7.12-1.43-.14-2.09-.44-1.13-1.71-1.76-2.16-2.89-.86-2.11,1.47-4.04,2.3-6.17.47-1.2.44-2.52.61-3.8.52-3.84,2.98-7.36,6.4-9.14,1.03.97,2.45,1.36,3.75,1.89,5.13,2.12,8.93,7.18,9.55,12.72.26,2.35,0,4.74.39,7.06s1.66,4.73,3.88,5.5c1.15.4,2.42.31,3.6,0,2.77-.75,5.18-2.76,6.41-5.37.5-1.07.82-2.24,1.48-3.22,1.29-1.91,3.86-3.15,3.98-5.45.08-1.41-.85-2.68-.96-4.09-.28-3.37,4.05-5.94,3.46-9.27-.36-2.04-2.55-3.32-4.61-3.35s-4,.88-5.86,1.78c-2.27-2.5-5.53-4.07-8.89-4.28-1.08-.07-2.19,0-3.24-.28-1.08-.28-2.03-.91-3.01-1.46-1.76-.98-3.78-1.72-5.76-1.36s-3.79,2.18-3.57,4.19"/>
    <polygon class="cls-3" points="88.13 115.69 95.84 113.12 98.78 114.4 101.35 115.69 101.35 121.2 96.58 124.5 88.13 118.81 88.13 115.69"/>
    <path class="cls-15" d="m84.66,41.01l110.94-13.14,5.03,39.43s0,6.66-8.5,4.68c-8.12-3.13-26.28-5.45-27.83,15.03,0,0,0,0,0,.01,2.32,15.07,14.69,21.25,32.47,9.27,0,0,0,0,0,0,6.75-1.12,8.41,3.56,8.15,6.85-.01.18-.01.36.02.54.85,4.37,3.81,35.13,3.81,35.13l-39.43,5.41s-6.18,4.64-1.93,10.82,13.53,19.33-7.34,27.83c0,0,0,0-.01,0-18.16,1.93-22.41-8.89-17.78-25.13-.39-5.8,1.93-8.12-5.03-9.66-6.96,1.16-38.65,5.03-38.65,5.03l-13.92-112.1Z"/>
    <path class="cls-17" d="m360.54,38.58l-38.71,98.79-35.27-13.46s-5.57-2.98-.11-9.22c6.26-5.39,16.35-19.57-.12-30.04-13.66-4.81-24.39,2.77-22.32,23.03-2.15,6.35-7.04,5.4-9.62,3.6-3.1-.83-31.36-12.62-31.36-12.62l12.19-32.9c1.01-2.72.3-5.89-1.98-7.69-1.21-.96-2.91-1.59-5.27-1.33-7.08.79-22.25,2.67-20.02-18.62,6.52-16.08,17.49-14.79,29.01-3.63,4.13,1.87,5.48,4.21,8.27,2.15,1.25-.92,2.13-2.24,2.66-3.7,3.07-8.56,12.53-32.95,12.53-32.95l100.11,38.58Z"/>
    <path class="cls-5" d="m334.28,266.69l-133.53-6.01-.36-39.75s.95-6.57,10.76-3.16c9.19,4.48,30.42,9.88,35.17-10.07-.61-15.27-14.41-23.48-37.22-14.7-8.42-.05-9.54-5.25-8.62-8.44-.45-3.38.44-35.56.44-35.56l44.14,1.3c3.66.11,7.04-1.65,8.11-4.53.57-1.53.53-3.44-.86-5.72-4.17-6.83-13.31-21.38,12.67-26.2,21.84,1.2,25.34,12.6,17.53,27.83-.3,4.75-2.43,6.88,1.27,8.99,1.65.94,3.6,1.4,5.55,1.44,11.44.23,44.36,1.62,44.36,1.62l.58,112.96Z"/>
    <path class="cls-10" d="m92.49,259.56l2.82-112.62,40.08.65s6.64.96,3.45,9.16c-4.3,7.65-9.22,25.45,11.01,29.94,15.38-.15,23.33-11.61,13.92-31.08-.16-7.11,5.07-7.94,8.3-7.08,3.4-.3,35.87,1.22,35.87,1.22l-.24,37.25c-.02,3.09,1.83,5.99,4.76,6.95,1.56.52,3.48.53,5.74-.59,6.78-3.36,21.23-10.73,26.72,11.33-.68,18.41-12.09,21.1-27.63,14.14-4.8-.37-6.99-2.22-9.03.86-.91,1.37-1.32,3.01-1.31,4.65.04,9.65-.56,37.42-.56,37.42l-113.89-2.21Z"/>
    <path class="cls-1" d="m396.77,63.7c3.13-.58,5.78-2.86,7.32-5.64,1.54-2.78,2.09-6.03,2.14-9.21.07-3.95-.88-8.37-4.16-10.57-1.43-.96-3.15-1.38-4.77-1.98-2.9-1.08-5.53-2.79-8.43-3.86s-6.31-1.43-8.96.15c-1.03.62-1.89,1.49-2.9,2.15-1.99,1.3-4.44,1.69-6.51,2.84s-3.82,3.65-2.84,5.81c.78,1.7,2.9,2.42,3.81,4.05.41.74.55,1.64,1.07,2.31.91,1.17,2.62,1.26,4.11,1.24,5.9-.06,11.79-.12,17.69-.18.69,0,1.44,0,2,.42.94.7.84,2.12.64,3.27-.57,3.34-1.14,6.68-1.71,10.02"/>
    <path class="cls-14" d="m392.51,71.93c-2.2.3-4.43.35-6.65.15.59-1.09.1-2.49-.72-3.42s-1.91-1.57-2.82-2.42c-2.1-1.95-3.06-4.84-3.47-7.68-.35-2.42-.36-4.93.42-7.24s2.43-4.41,4.69-5.34c2.75-1.14,5.99-.39,8.52,1.19,3.02,1.89,5.32,5.05,5.79,8.58.47,3.53-1.09,7.36-4.12,9.24-.44.27-.93.53-1.16.99-.18.35-.17.76-.17,1.15.02,1.43.04,2.86.06,4.29"/>
    <polygon class="cls-14" points="349.73 97.7 344.83 92.93 334.91 97.7 337.85 102.47 347.76 106.38 349.73 97.7"/>
    <polygon class="cls-4" points="420.93 244.88 423.45 251.13 413.58 255.1 407.83 255.01 408.13 250.42 415.33 243.71 420.93 244.88"/>
    <polygon class="cls-4" points="374.48 247.72 374.48 254.47 363.85 254.47 358.55 252.24 360.54 248.09 369.73 244.55 374.48 247.72"/>
    <path class="cls-9" d="m358.55,162.09c.11,28.1.48,56.2,1.1,84.29,3.89.81,16.4,1.39,20.36,1.71,2.56-26.55,2.53-54.5,3.67-81.14-.47,10.34-1.84,21.41-.82,31.72.32,3.2.22,6.47,1.1,9.57,1.03,3.62,3.32,6.74,5.59,9.74,3.61,4.77,7.29,9.48,10.97,14.2,3.46,4.43,6.92,8.86,10.37,13.29.4.51.83,1.04,1.44,1.25.68.23,1.42.02,2.11-.2,1.82-.58,3.65-1.16,5.47-1.74.53-.17,1.08-.36,1.43-.79.41-.52.4-1.26.36-1.92-.71-11.5-3.44-22.87-8.04-33.43-1.5-3.45-3.21-6.87-3.88-10.58-.54-2.99-.37-6.07-.11-9.1.59-6.88,1.68-13.71,3.24-20.43.19-.82.39-1.69.14-2.5-.26-.84-.97-1.46-1.64-2.04-3.09-2.63-6.3-5.33-10.2-6.45-2.88-.83-5.94-.74-8.95-.65-8.57.28-17.15.56-25.72.83-1.67.05-3.4.12-4.92.83s-2.79,2.22-2.67,3.89"/>
    <path class="cls-12" d="m351.02,91.49c8.1-5.6,14.2-14.14,23.26-18,6.39-2.72,13.55-2.79,20.5-2.81,3.25-.01,6.76.06,9.37,2,1.96,1.46,3.09,3.76,3.99,6.03,4.58,11.45,5.19,24.03,5.75,36.35.79,17.3,1.57,34.59,2.36,51.89-17.24-10.4-39.18-9.09-58.62-3.86-2.36-15.35-1.63-31.17,2.11-46.25.13-.53.27-1.09.11-1.62-.21-.73-.92-1.19-1.57-1.58-2.92-1.76-5.83-3.52-8.75-5.28-.48-.29-.97-.59-1.27-1.06-.31-.49-.37-1.1-.4-1.69-.25-4.92.96-9.91,3.44-14.17"/>
    <g>
      <path class="cls-18" d="m264.84,213.21h-2.78v-5.79h-5.43v5.79h-2.78v-13.51h2.78v5.47h5.43v-5.47h2.78v13.51Z"/>
      <path class="cls-18" d="m267.07,200.57c0-.4.13-.73.4-.99.27-.26.63-.39,1.1-.39s.82.13,1.09.39c.27.26.41.59.41.99s-.14.74-.41,1c-.28.26-.64.39-1.09.39s-.81-.13-1.09-.39-.41-.59-.41-1Zm2.85,12.64h-2.69v-10.04h2.69v10.04Z"/>
      <path class="cls-18" d="m277.57,210.44c0-.33-.16-.59-.49-.77-.32-.19-.85-.36-1.56-.51-2.39-.5-3.58-1.52-3.58-3.04,0-.89.37-1.63,1.11-2.23.74-.6,1.71-.9,2.9-.9,1.27,0,2.29.3,3.06.9s1.15,1.38,1.15,2.34h-2.68c0-.38-.12-.7-.37-.95-.25-.25-.63-.38-1.16-.38-.45,0-.8.1-1.05.31s-.37.46-.37.78c0,.3.14.54.42.72.28.18.76.34,1.42.47.67.13,1.23.28,1.69.45,1.42.52,2.12,1.42,2.12,2.7,0,.92-.39,1.66-1.18,2.22-.79.57-1.8.85-3.04.85-.84,0-1.59-.15-2.24-.45-.65-.3-1.17-.71-1.54-1.23-.37-.52-.56-1.09-.56-1.69h2.54c.03.48.2.84.53,1.09.33.25.77.38,1.32.38.51,0,.9-.1,1.16-.29s.39-.45.39-.77Z"/>
      <path class="cls-18" d="m285.11,200.7v2.47h1.72v1.97h-1.72v5.01c0,.37.07.64.21.8.14.16.41.24.82.24.3,0,.56-.02.79-.06v2.03c-.53.16-1.07.24-1.62.24-1.88,0-2.84-.95-2.88-2.85v-5.41h-1.47v-1.97h1.47v-2.47h2.68Z"/>
      <path class="cls-18" d="m287.62,208.1c0-1,.19-1.88.58-2.66.38-.78.94-1.38,1.66-1.81.72-.43,1.56-.64,2.51-.64,1.35,0,2.46.41,3.32,1.24.86.83,1.33,1.95,1.43,3.38l.02.69c0,1.54-.43,2.78-1.29,3.71-.86.93-2.01,1.4-3.46,1.4s-2.6-.46-3.46-1.39-1.29-2.19-1.29-3.79v-.12Zm2.68.19c0,.95.18,1.68.54,2.19s.87.76,1.54.76,1.16-.25,1.52-.75.55-1.3.55-2.39c0-.94-.18-1.66-.55-2.17s-.88-.77-1.54-.77-1.16.26-1.52.77c-.36.51-.54,1.3-.54,2.37Zm2.59-9.33h2.92l-2.57,2.88h-2.18l1.83-2.88Z"/>
      <path class="cls-18" d="m304.42,205.69c-.36-.05-.69-.07-.96-.07-1.01,0-1.68.34-1.99,1.03v6.57h-2.68v-10.04h2.53l.07,1.2c.54-.92,1.28-1.38,2.24-1.38.3,0,.58.04.83.12l-.04,2.58Z"/>
      <path class="cls-18" d="m305.69,200.57c0-.4.13-.73.4-.99s.64-.39,1.1-.39.82.13,1.09.39c.27.26.41.59.41.99s-.14.74-.41,1-.64.39-1.09.39-.82-.13-1.09-.39c-.28-.26-.41-.59-.41-1Zm2.85,12.64h-2.69v-10.04h2.69v10.04Z"/>
      <path class="cls-18" d="m316.57,213.21c-.12-.24-.21-.54-.27-.9-.65.72-1.49,1.09-2.53,1.09-.98,0-1.8-.28-2.45-.85s-.97-1.29-.97-2.15c0-1.06.39-1.88,1.18-2.45s1.93-.86,3.42-.86h1.23v-.58c0-.46-.12-.83-.36-1.11-.24-.28-.61-.42-1.13-.42-.45,0-.81.11-1.06.32-.26.22-.39.51-.39.89h-2.68c0-.58.18-1.12.54-1.61.36-.49.87-.88,1.52-1.16.66-.28,1.39-.42,2.21-.42,1.24,0,2.22.31,2.95.93s1.09,1.5,1.09,2.62v4.35c0,.95.14,1.67.4,2.16v.16h-2.71Zm-2.22-1.86c.4,0,.76-.09,1.09-.26s.58-.41.74-.71v-1.73h-1c-1.34,0-2.06.46-2.14,1.39v.16c0,.33.11.61.34.83.24.22.56.32.96.32Z"/>
    </g>
    <g>
      <path class="cls-16" d="m255.52,56.45c.18-.49.15-.94-.09-1.33-.25-.39-.77-.91-1.56-1.54-.79-.63-1.4-1.19-1.82-1.67-1.14-1.31-1.47-2.63-.98-3.94.26-.68.68-1.22,1.26-1.61.59-.39,1.3-.6,2.13-.63.83-.03,1.7.12,2.6.46.9.34,1.65.8,2.23,1.4.58.59.96,1.26,1.13,2,.17.74.11,1.49-.18,2.25l-2.61-.98c.22-.58.2-1.1-.04-1.56-.24-.46-.7-.81-1.36-1.06-.64-.24-1.18-.29-1.64-.15-.45.14-.76.43-.93.87-.16.41-.08.83.23,1.27.31.43.82.92,1.54,1.47,1.31,1,2.19,1.96,2.62,2.88.43.91.46,1.86.09,2.85-.41,1.09-1.15,1.8-2.21,2.11s-2.29.21-3.69-.32c-.97-.36-1.79-.88-2.46-1.53-.67-.66-1.09-1.37-1.28-2.15-.19-.78-.13-1.57.18-2.39l2.61.98c-.52,1.4.05,2.41,1.72,3.03.62.23,1.15.29,1.59.17.44-.12.75-.41.92-.86Z"/>
      <path class="cls-16" d="m259.9,56.42c.35-.93.84-1.7,1.47-2.29.63-.59,1.36-.96,2.19-1.11.82-.15,1.68-.05,2.57.28,1.27.48,2.16,1.25,2.67,2.33.51,1.08.56,2.3.16,3.67l-.23.65c-.54,1.44-1.38,2.45-2.51,3.02-1.13.57-2.38.6-3.73.09-1.36-.51-2.27-1.35-2.75-2.52-.48-1.17-.44-2.5.12-4l.04-.11Zm2.44,1.12c-.34.89-.42,1.64-.27,2.24.16.6.55,1.02,1.18,1.25.61.23,1.17.17,1.69-.17.52-.34.97-1.02,1.35-2.05.33-.88.41-1.62.25-2.23-.16-.61-.55-1.03-1.17-1.26-.61-.23-1.18-.17-1.69.18s-.96,1.03-1.34,2.03Z"/>
      <path class="cls-16" d="m273.15,64.74c.46.17.89.19,1.27.04.39-.15.66-.43.83-.85l2.35.88c-.24.64-.64,1.15-1.18,1.55-.54.4-1.16.64-1.87.71-.71.07-1.42-.03-2.13-.3-1.34-.5-2.24-1.33-2.7-2.47-.46-1.15-.4-2.47.17-3.98l.06-.17c.54-1.45,1.36-2.46,2.46-3.03,1.09-.57,2.31-.61,3.66-.1,1.18.44,1.99,1.13,2.45,2.06.46.94.48,1.96.08,3.08l-2.35-.88c.17-.49.17-.95,0-1.36-.17-.41-.5-.71-.97-.89-.58-.22-1.11-.17-1.56.14-.46.31-.87.95-1.23,1.91l-.1.26c-.36.97-.48,1.72-.34,2.25.14.54.51.92,1.11,1.14Z"/>
      <path class="cls-16" d="m280.47,69.6l-2.52-.95,3.53-9.4,2.52.95-3.53,9.4Zm1.77-12.83c.14-.38.38-.64.73-.79.34-.15.73-.14,1.17.02.43.16.73.41.89.75.16.34.17.7.03,1.07-.14.38-.39.65-.74.79-.35.15-.74.14-1.16-.02-.42-.16-.72-.41-.88-.75-.17-.34-.18-.7-.03-1.08Z"/>
      <path class="cls-16" d="m283.95,65.45c.35-.93.84-1.7,1.47-2.29.63-.59,1.36-.97,2.19-1.11.82-.15,1.68-.05,2.57.28,1.27.48,2.16,1.25,2.67,2.33.51,1.08.56,2.3.16,3.67l-.23.65c-.54,1.44-1.38,2.45-2.51,3.02-1.13.57-2.38.6-3.73.09-1.36-.51-2.27-1.35-2.75-2.52-.48-1.17-.44-2.5.12-4l.04-.11Zm2.44,1.12c-.34.89-.42,1.64-.26,2.24.16.6.55,1.02,1.18,1.25.61.23,1.17.17,1.69-.17.52-.34.97-1.02,1.35-2.05.33-.88.41-1.62.25-2.23-.16-.61-.55-1.03-1.17-1.26-.61-.23-1.18-.17-1.69.18s-.96,1.03-1.34,2.03Z"/>
      <path class="cls-16" d="m295.25,75.15l-2.52-.95,5.01-13.34,2.52.95-5.01,13.34Z"/>
      <path class="cls-16" d="m298.72,70.99c.35-.93.84-1.7,1.47-2.29.63-.59,1.36-.96,2.19-1.11.82-.15,1.68-.05,2.57.28,1.27.47,2.16,1.25,2.67,2.33.51,1.08.56,2.3.16,3.67l-.23.65c-.54,1.44-1.38,2.45-2.51,3.02-1.13.57-2.38.6-3.73.09-1.36-.51-2.27-1.35-2.75-2.52-.48-1.17-.44-2.5.12-4l.04-.11Zm2.44,1.12c-.33.89-.42,1.64-.27,2.24.16.6.55,1.01,1.18,1.25.61.23,1.17.17,1.69-.17.52-.34.97-1.02,1.35-2.05.33-.88.41-1.62.25-2.23-.16-.61-.55-1.03-1.17-1.26-.61-.23-1.18-.17-1.69.18s-.96,1.03-1.34,2.03Z"/>
      <path class="cls-16" d="m308.8,74.79c.54-1.44,1.32-2.47,2.34-3.1s2.11-.72,3.27-.28c1.03.39,1.7,1.04,2.01,1.96l.44-.85,2.28.85-3.41,9.08c-.31.82-.76,1.47-1.37,1.93-.6.47-1.3.73-2.1.8-.8.06-1.65-.07-2.56-.42-.69-.26-1.31-.65-1.86-1.17-.55-.52-.91-1.06-1.09-1.62l1.69-1.11c.36.94.99,1.57,1.88,1.91.67.25,1.25.27,1.75.05s.88-.65,1.12-1.31l.19-.5c-.82.44-1.71.48-2.65.12-1.13-.42-1.88-1.21-2.24-2.35-.37-1.14-.27-2.45.27-3.91l.04-.1Zm2.44,1.13c-.32.85-.4,1.59-.24,2.2.16.61.54,1.03,1.13,1.25.76.29,1.42.21,1.96-.25l1.49-3.96c-.12-.7-.55-1.19-1.3-1.47-.6-.23-1.17-.16-1.7.21-.53.36-.98,1.04-1.35,2.01Z"/>
      <path class="cls-16" d="m320.18,84.51l-2.52-.95,3.53-9.4,2.52.95-3.53,9.4Zm1.77-12.83c.14-.38.38-.64.73-.79s.73-.14,1.17.02c.43.16.72.41.89.75.16.34.17.7.03,1.07-.14.38-.39.65-.74.79-.35.15-.74.14-1.16-.02-.42-.16-.72-.41-.88-.75-.17-.34-.18-.7-.03-1.08Z"/>
      <path class="cls-16" d="m327.69,87.33c-.03-.27-.01-.58.06-.94-.86.45-1.78.49-2.75.12-.92-.35-1.58-.9-1.99-1.66-.41-.76-.46-1.54-.15-2.36.37-1,1.03-1.62,1.97-1.88s2.11-.12,3.5.39l1.16.43.2-.54c.16-.43.18-.82.06-1.17-.12-.34-.43-.61-.91-.79-.42-.16-.79-.18-1.11-.07-.32.11-.54.35-.67.7l-2.51-.94c.2-.54.56-.98,1.07-1.32.51-.34,1.12-.52,1.83-.56s1.45.09,2.22.38c1.16.44,1.97,1.07,2.43,1.91.46.84.5,1.78.1,2.84l-1.53,4.07c-.33.89-.46,1.62-.39,2.16l-.05.15-2.54-.95Zm-1.42-2.53c.37.14.74.18,1.12.14.37-.05.69-.18.94-.4l.61-1.62-.94-.35c-1.26-.47-2.09-.29-2.5.55l-.06.14c-.12.31-.11.61.04.9.14.29.41.5.79.64Z"/>
    </g>
    <g>
      <path class="cls-16" d="m120.43,121.83l-5.34.1.11,5.52-2.78.05-.26-13.51,8.79-.17.04,2.25-6.01.12.07,3.49,5.34-.1.04,2.24Z"/>
      <path class="cls-16" d="m122.38,114.68c0-.4.12-.74.38-1,.26-.27.63-.4,1.09-.41.46,0,.83.11,1.1.37.28.25.42.58.43.98,0,.41-.12.74-.39,1.01-.27.27-.63.4-1.08.41-.45,0-.82-.11-1.1-.37-.28-.25-.42-.59-.43-.99Zm3.09,12.58l-2.69.05-.19-10.04,2.69-.05.19,10.04Z"/>
      <path class="cls-16" d="m130.5,127.16l-2.69.05-.27-14.25,2.69-.05.27,14.25Z"/>
      <path class="cls-16" d="m132.19,122.01c-.02-1,.16-1.89.52-2.67.37-.79.91-1.4,1.62-1.84.71-.44,1.54-.67,2.5-.69,1.35-.03,2.47.37,3.34,1.18.87.81,1.37,1.93,1.5,3.35l.03.69c.03,1.54-.38,2.78-1.22,3.73-.84.95-1.99,1.44-3.43,1.46-1.45.03-2.61-.41-3.49-1.32-.88-.91-1.34-2.16-1.37-3.76v-.12Zm2.68.14c.02.95.21,1.68.58,2.18.37.5.89.74,1.55.73.65-.01,1.15-.27,1.51-.78.36-.51.52-1.31.5-2.4-.02-.94-.21-1.66-.59-2.16-.37-.51-.89-.75-1.55-.74-.66.01-1.16.28-1.51.8-.35.52-.51,1.31-.49,2.38Z"/>
      <path class="cls-16" d="m148.83,124.03c0-.33-.17-.58-.5-.77-.33-.18-.85-.34-1.57-.48-2.4-.46-3.61-1.45-3.64-2.97-.02-.89.34-1.64,1.07-2.25.73-.61,1.69-.93,2.88-.95,1.27-.02,2.3.26,3.07.84.78.59,1.17,1.36,1.19,2.32l-2.68.05c0-.38-.14-.7-.39-.94-.25-.25-.64-.36-1.17-.35-.45,0-.8.12-1.04.33s-.36.47-.36.79c0,.3.15.53.44.71.28.18.76.33,1.43.44.67.12,1.24.26,1.7.42,1.43.49,2.15,1.38,2.18,2.66.02.92-.36,1.66-1.14,2.24-.77.58-1.78.88-3.03.91-.84.02-1.59-.12-2.25-.41-.66-.29-1.18-.69-1.56-1.2-.38-.52-.58-1.08-.59-1.68l2.54-.05c.03.48.22.84.55,1.08.33.25.77.37,1.33.35.51-.01.9-.11,1.16-.31.26-.2.39-.46.38-.77Z"/>
      <path class="cls-16" d="m152.7,121.62c-.02-1,.16-1.89.52-2.67.37-.79.91-1.4,1.62-1.84.71-.44,1.54-.67,2.5-.69,1.35-.03,2.47.37,3.34,1.18.87.81,1.37,1.93,1.5,3.35l.03.69c.03,1.54-.38,2.78-1.22,3.73-.84.95-1.99,1.44-3.43,1.46-1.45.03-2.61-.41-3.49-1.32-.88-.91-1.34-2.16-1.37-3.76v-.12Zm2.68.14c.02.95.21,1.68.58,2.18.37.5.89.74,1.55.73.65-.01,1.15-.27,1.51-.78.36-.51.52-1.31.5-2.4-.02-.94-.21-1.66-.59-2.16-.37-.51-.89-.75-1.55-.74-.66.01-1.16.28-1.51.8-.35.52-.51,1.31-.49,2.38Z"/>
      <path class="cls-16" d="m164.69,126.5l-.16-8.07-1.49.03-.04-1.97,1.49-.03-.02-.85c-.02-1.12.28-2,.92-2.64.63-.63,1.53-.96,2.69-.98.37,0,.83.05,1.37.16v2.08c-.21-.05-.48-.07-.81-.07-1.01.02-1.5.5-1.48,1.45l.02.81,1.99-.04.04,1.97-1.99.04.16,8.07-2.69.05Z"/>
      <path class="cls-16" d="m170.51,113.75c0-.4.12-.74.38-1,.26-.26.63-.4,1.09-.41.46,0,.83.11,1.1.37.28.25.42.58.43.98,0,.41-.12.75-.39,1.01-.27.27-.63.4-1.08.41-.45,0-.82-.11-1.1-.37s-.42-.59-.43-.99Zm3.09,12.58l-2.69.05-.19-10.04,2.69-.05.19,10.04Z"/>
      <path class="cls-16" d="m181.62,126.17c-.13-.24-.22-.54-.29-.89-.64.74-1.47,1.11-2.51,1.13-.98.02-1.8-.25-2.46-.81-.66-.56-.99-1.27-1.01-2.13-.02-1.06.36-1.89,1.13-2.47.78-.58,1.91-.89,3.4-.93l1.23-.02v-.58c-.02-.46-.15-.83-.39-1.11-.24-.27-.62-.41-1.14-.4-.45,0-.8.12-1.05.35-.25.22-.38.52-.37.9l-2.68.05c-.01-.58.16-1.12.51-1.62.35-.5.85-.9,1.5-1.19.65-.29,1.38-.45,2.2-.46,1.24-.02,2.22.27,2.96.88.74.61,1.12,1.47,1.14,2.6l.08,4.35c.03.95.17,1.67.44,2.15v.16s-2.71.05-2.71.05Zm-2.25-1.82c.4,0,.76-.1,1.09-.29.33-.18.57-.42.73-.72l-.03-1.73-1,.02c-1.34.03-2.05.5-2.12,1.43v.16c0,.33.12.61.36.82.24.21.56.31.97.31Z"/>
    </g>
    <g>
      <path class="cls-16" d="m122.99,211.52c-.5.6-1.21,1.06-2.13,1.39-.92.33-1.93.49-3.04.49-1.17,0-2.19-.26-3.08-.77-.88-.51-1.56-1.25-2.04-2.22-.48-.97-.72-2.11-.73-3.42v-.92c0-1.35.23-2.52.69-3.5.46-.99,1.11-1.74,1.97-2.26.86-.52,1.86-.78,3.01-.78,1.6,0,2.85.39,3.76,1.15.9.77,1.44,1.88,1.6,3.34h-2.71c-.12-.78-.4-1.34-.82-1.7-.42-.36-1-.54-1.75-.54-.95,0-1.67.35-2.16,1.06-.5.71-.75,1.77-.76,3.17v.86c0,1.42.26,2.49.8,3.21.54.72,1.33,1.09,2.37,1.09,1.04,0,1.79-.22,2.24-.67v-2.33s-2.53,0-2.53,0v-2.05s5.32,0,5.32,0v5.39Z"/>
      <path class="cls-16" d="m129.68,213.42c-1.47,0-2.67-.45-3.59-1.36-.92-.9-1.38-2.11-1.38-3.61v-.26c0-1.01.2-1.91.59-2.7.39-.79.94-1.41,1.66-1.83.71-.43,1.53-.64,2.45-.64,1.37,0,2.45.44,3.24,1.3.79.87,1.18,2.1,1.18,3.68v1.09s-6.39,0-6.39,0c.08.66.35,1.18.78,1.58.44.4.99.6,1.66.6,1.03,0,1.84-.37,2.42-1.12l1.32,1.48c-.4.57-.95,1.01-1.63,1.33-.69.32-1.45.48-2.28.47Zm-.3-8.25c-.53,0-.96.18-1.29.54-.33.36-.54.88-.64,1.55h3.73s0-.21,0-.21c-.01-.6-.17-1.06-.48-1.38-.31-.33-.75-.49-1.32-.49Z"/>
      <path class="cls-16" d="m134.92,208.13c0-1,.19-1.88.58-2.66s.94-1.38,1.66-1.81c.72-.43,1.56-.64,2.51-.64,1.35,0,2.46.42,3.32,1.25.86.83,1.33,1.96,1.43,3.38l.02.69c0,1.54-.43,2.77-1.29,3.7-.86.93-2.02,1.39-3.46,1.39-1.45,0-2.6-.47-3.46-1.4-.86-.93-1.29-2.19-1.29-3.79v-.12Zm2.68.19c0,.95.18,1.68.54,2.19.36.51.87.76,1.54.76.65,0,1.16-.25,1.52-.75.37-.5.55-1.3.55-2.39,0-.93-.18-1.66-.54-2.17-.36-.51-.88-.77-1.54-.77-.66,0-1.16.25-1.52.76-.36.51-.54,1.3-.54,2.37Z"/>
      <path class="cls-16" d="m145.69,208.16c0-1.54.37-2.78,1.1-3.72.73-.94,1.72-1.41,2.96-1.41,1.1,0,1.96.38,2.57,1.13l.11-.95h2.43s-.01,9.71-.01,9.71c0,.88-.2,1.64-.6,2.29-.4.65-.96,1.14-1.69,1.48-.72.34-1.57.51-2.54.51-.74,0-1.45-.15-2.15-.44-.7-.29-1.23-.67-1.58-1.14l1.19-1.63c.67.75,1.48,1.12,2.43,1.13.71,0,1.26-.19,1.66-.57.4-.38.59-.92.6-1.62v-.54c-.62.7-1.43,1.05-2.44,1.05-1.21,0-2.18-.47-2.93-1.42-.74-.94-1.11-2.2-1.11-3.75v-.11Zm2.68.2c0,.91.18,1.62.54,2.14.36.52.86.78,1.5.78.82,0,1.4-.3,1.75-.92v-4.23c-.35-.61-.93-.92-1.73-.92-.64,0-1.15.26-1.52.79-.37.53-.55,1.31-.55,2.36Z"/>
      <path class="cls-16" d="m162.57,205.75c-.36-.05-.69-.08-.96-.08-1.01,0-1.68.34-2,1.03v6.57s-2.69,0-2.69,0v-10.04s2.54,0,2.54,0l.07,1.2c.54-.92,1.28-1.38,2.24-1.38.3,0,.57.04.83.12l-.04,2.58Z"/>
      <path class="cls-16" d="m169.39,213.28c-.12-.24-.21-.54-.27-.9-.65.72-1.5,1.08-2.54,1.08-.98,0-1.8-.29-2.44-.86-.65-.57-.97-1.29-.97-2.15,0-1.06.4-1.88,1.19-2.45.79-.57,1.93-.85,3.42-.86h1.23s0-.57,0-.57c0-.46-.12-.83-.36-1.11-.24-.28-.61-.42-1.13-.42-.45,0-.81.11-1.06.32-.26.22-.39.51-.39.89h-2.68c0-.58.18-1.12.54-1.62.36-.49.87-.88,1.52-1.16.66-.28,1.39-.42,2.21-.42,1.24,0,2.22.31,2.94.94.73.62,1.09,1.5,1.09,2.62v4.35c0,.95.13,1.67.39,2.16v.16h-2.71Zm-2.22-1.87c.4,0,.76-.09,1.1-.26.33-.18.58-.41.74-.71v-1.73s-1,0-1,0c-1.34,0-2.06.46-2.14,1.39v.16c0,.33.11.61.34.83.24.22.56.33.96.33Z"/>
      <path class="cls-16" d="m174.49,213.29v-8.07s-1.48,0-1.48,0v-1.97s1.5,0,1.5,0v-.85c0-1.13.33-2,.97-2.62.65-.62,1.55-.93,2.71-.93.37,0,.83.06,1.36.19l-.03,2.08c-.22-.06-.49-.08-.82-.08-1.01,0-1.51.47-1.51,1.42v.81s1.99,0,1.99,0v1.97s-2,0-2,0v8.07s-2.7,0-2.7,0Z"/>
      <path class="cls-16" d="m180.56,200.66c0-.4.13-.73.41-.99.27-.26.64-.39,1.1-.39.46,0,.82.13,1.1.39.27.26.41.59.41.99,0,.41-.14.74-.41,1s-.64.39-1.09.39c-.45,0-.81-.13-1.09-.39-.27-.26-.41-.59-.41-1Zm2.83,12.64h-2.69s.01-10.04.01-10.04h2.69s-.01,10.04-.01,10.04Z"/>
      <path class="cls-16" d="m191.42,213.31c-.12-.24-.21-.54-.27-.9-.65.72-1.5,1.08-2.54,1.08-.98,0-1.8-.29-2.44-.86s-.97-1.29-.97-2.15c0-1.06.4-1.88,1.19-2.45.79-.57,1.93-.85,3.42-.86h1.23s0-.57,0-.57c0-.46-.12-.83-.36-1.11-.24-.28-.61-.42-1.13-.42-.45,0-.81.11-1.06.32-.26.22-.39.51-.39.89h-2.68c0-.58.18-1.12.54-1.62.36-.49.87-.88,1.52-1.16.66-.28,1.39-.42,2.21-.42,1.24,0,2.22.31,2.94.94.73.62,1.09,1.5,1.09,2.62v4.35c0,.95.13,1.67.39,2.16v.16h-2.71Zm-2.22-1.87c.4,0,.76-.09,1.1-.26.33-.18.58-.41.74-.71v-1.73s-1,0-1,0c-1.34,0-2.06.46-2.14,1.39v.16c0,.33.11.61.34.83.24.22.56.33.96.33Z"/>
    </g>
    <polygon class="cls-8" points="387.95 70.68 392.01 70.68 392.01 74.73 389.25 76.67 382.77 118.16 375.31 126.43 372.07 117.03 387.95 70.68"/>
    <path class="cls-13" d="m350.69,112.36l25.57,8.42c.36.12.73.18,1.1.18h11.1c1.07,0,2.08-.49,2.81-1.35l19.39-22.89c.85-1,1.21-2.38.96-3.73-.89-4.94-3.56-16.88-9.19-20.98-1.92-1.4-4.53-.5-5.51,1.8-3.4,7.98-8.26,21.14-10.37,26.91-.62,1.71-2.17,2.77-3.84,2.64l-30.24-2.36c-2-.16-3.77,1.41-4.07,3.6l-.42,3.06c-.29,2.1.86,4.11,2.7,4.71Z"/>
  </g>
</svg>