<?xml version="1.0" encoding="UTF-8"?>
<svg id="Camada_2" data-name="Camada 2" xmlns="http://www.w3.org/2000/svg" viewBox="0 0 134.07 152.84">
  <defs>
    <style>
      .cls-1 {
        fill: #f0f0ff;
      }

      .cls-1, .cls-2 {
        stroke-width: 0px;
      }

      .cls-2 {
        fill: #00a7b3;
      }
    </style>
  </defs>
  <g id="OBJECTS">
    <path class="cls-2" d="m134.07,152.84L.54,146.83l-.36-39.75s.95-6.57,10.76-3.16c9.19,4.48,30.42,9.88,35.17-10.07-.61-15.27-14.41-23.48-37.22-14.7-8.42-.05-9.54-5.25-8.62-8.44-.45-3.38.44-35.56.44-35.56l44.14,1.3c3.66.11,7.04-1.65,8.11-4.53.57-1.53.53-3.44-.86-5.72-4.17-6.83-13.31-21.38,12.67-26.2,21.84,1.2,25.34,12.6,17.53,27.83-.3,4.75-2.43,6.88,1.27,8.99,1.65.94,3.6,1.4,5.55,1.44,11.44.23,44.36,1.62,44.36,1.62l.58,112.96Z"/>
    <g>
      <path class="cls-1" d="m64.62,99.36h-2.78v-5.79h-5.43v5.79h-2.78v-13.51h2.78v5.47h5.43v-5.47h2.78v13.51Z"/>
      <path class="cls-1" d="m66.85,86.73c0-.4.13-.73.4-.99.27-.26.63-.39,1.1-.39s.82.13,1.09.39c.27.26.41.59.41.99s-.14.74-.41,1c-.28.26-.64.39-1.09.39s-.81-.13-1.09-.39-.41-.59-.41-1Zm2.85,12.64h-2.69v-10.04h2.69v10.04Z"/>
      <path class="cls-1" d="m77.35,96.59c0-.33-.16-.59-.49-.77-.32-.19-.85-.36-1.56-.51-2.39-.5-3.58-1.52-3.58-3.04,0-.89.37-1.63,1.11-2.23.74-.6,1.71-.9,2.9-.9,1.27,0,2.29.3,3.06.9s1.15,1.38,1.15,2.34h-2.68c0-.38-.12-.7-.37-.95-.25-.25-.63-.38-1.16-.38-.45,0-.8.1-1.05.31s-.37.46-.37.78c0,.3.14.54.42.72.28.18.76.34,1.42.47.67.13,1.23.28,1.69.45,1.42.52,2.12,1.42,2.12,2.7,0,.92-.39,1.66-1.18,2.22-.79.57-1.8.85-3.04.85-.84,0-1.59-.15-2.24-.45-.65-.3-1.17-.71-1.54-1.23-.37-.52-.56-1.09-.56-1.69h2.54c.03.48.2.84.53,1.09.33.25.77.38,1.32.38.51,0,.9-.1,1.16-.29s.39-.45.39-.77Z"/>
      <path class="cls-1" d="m84.89,86.86v2.47h1.72v1.97h-1.72v5.01c0,.37.07.64.21.8.14.16.41.24.82.24.3,0,.56-.02.79-.06v2.03c-.53.16-1.07.24-1.62.24-1.88,0-2.84-.95-2.88-2.85v-5.41h-1.47v-1.97h1.47v-2.47h2.68Z"/>
      <path class="cls-1" d="m87.4,94.25c0-1,.19-1.88.58-2.66.38-.78.94-1.38,1.66-1.81.72-.43,1.56-.64,2.51-.64,1.35,0,2.46.41,3.32,1.24.86.83,1.33,1.95,1.43,3.38l.02.69c0,1.54-.43,2.78-1.29,3.71-.86.93-2.01,1.4-3.46,1.4s-2.6-.46-3.46-1.39-1.29-2.19-1.29-3.79v-.12Zm2.68.19c0,.95.18,1.68.54,2.19s.87.76,1.54.76,1.16-.25,1.52-.75.55-1.3.55-2.39c0-.94-.18-1.66-.55-2.17s-.88-.77-1.54-.77-1.16.26-1.52.77c-.36.51-.54,1.3-.54,2.37Zm2.59-9.33h2.92l-2.57,2.88h-2.18l1.83-2.88Z"/>
      <path class="cls-1" d="m104.2,91.84c-.36-.05-.69-.07-.96-.07-1.01,0-1.68.34-1.99,1.03v6.57h-2.68v-10.04h2.53l.07,1.2c.54-.92,1.28-1.38,2.24-1.38.3,0,.58.04.83.12l-.04,2.58Z"/>
      <path class="cls-1" d="m105.47,86.73c0-.4.13-.73.4-.99s.64-.39,1.1-.39.82.13,1.09.39c.27.26.41.59.41.99s-.14.74-.41,1-.64.39-1.09.39-.82-.13-1.09-.39c-.28-.26-.41-.59-.41-1Zm2.85,12.64h-2.69v-10.04h2.69v10.04Z"/>
      <path class="cls-1" d="m116.35,99.36c-.12-.24-.21-.54-.27-.9-.65.72-1.49,1.09-2.53,1.09-.98,0-1.8-.28-2.45-.85s-.97-1.29-.97-2.15c0-1.06.39-1.88,1.18-2.45s1.93-.86,3.42-.86h1.23v-.58c0-.46-.12-.83-.36-1.11-.24-.28-.61-.42-1.13-.42-.45,0-.81.11-1.06.32-.26.22-.39.51-.39.89h-2.68c0-.58.18-1.12.54-1.61.36-.49.87-.88,1.52-1.16.66-.28,1.39-.42,2.21-.42,1.24,0,2.22.31,2.95.93s1.09,1.5,1.09,2.62v4.35c0,.95.14,1.67.4,2.16v.16h-2.71Zm-2.22-1.86c.4,0,.76-.09,1.09-.26s.58-.41.74-.71v-1.73h-1c-1.34,0-2.06.46-2.14,1.39v.16c0,.33.11.61.34.83.24.22.56.32.96.32Z"/>
    </g>
  </g>
</svg>