<?xml version="1.0" encoding="UTF-8"?>
<svg id="Camada_2" data-name="Camada 2" xmlns="http://www.w3.org/2000/svg" viewBox="0 0 152.43 114.83">
  <defs>
    <style>
      .cls-1 {
        fill: #446ea8;
      }

      .cls-1, .cls-2 {
        stroke-width: 0px;
      }

      .cls-2 {
        fill: #fff;
      }
    </style>
  </defs>
  <g id="OBJECTS">
    <path class="cls-1" d="m0,112.62L2.82,0l40.08.65s6.64.96,3.45,9.16c-4.3,7.65-9.22,25.45,11.01,29.94,15.38-.15,23.33-11.61,13.92-31.08-.16-7.11,5.07-7.94,8.3-7.08,3.4-.3,35.87,1.22,35.87,1.22l-.24,37.25c-.02,3.09,1.83,5.99,4.76,6.95,1.56.52,3.48.53,5.74-.59,6.78-3.36,21.23-10.73,26.72,11.33-.68,18.41-12.09,21.1-27.63,14.14-4.8-.37-6.99-2.22-9.03.86-.91,1.37-1.32,3.01-1.31,4.65.04,9.65-.56,37.42-.56,37.42L0,112.62Z"/>
    <g>
      <path class="cls-2" d="m30.49,64.58c-.5.6-1.21,1.06-2.13,1.39-.92.33-1.93.49-3.04.49-1.17,0-2.19-.26-3.08-.77-.88-.51-1.56-1.25-2.04-2.22-.48-.97-.72-2.11-.73-3.42v-.92c0-1.35.23-2.52.69-3.5.46-.99,1.11-1.74,1.97-2.26.86-.52,1.86-.78,3.01-.78,1.6,0,2.85.39,3.76,1.15.9.77,1.44,1.88,1.6,3.34h-2.71c-.12-.78-.4-1.34-.82-1.7-.42-.36-1-.54-1.75-.54-.95,0-1.67.35-2.16,1.06-.5.71-.75,1.77-.76,3.17v.86c0,1.42.26,2.49.8,3.21.54.72,1.33,1.09,2.37,1.09,1.04,0,1.79-.22,2.24-.67v-2.33s-2.53,0-2.53,0v-2.05s5.32,0,5.32,0v5.39Z"/>
      <path class="cls-2" d="m37.19,66.48c-1.47,0-2.67-.45-3.59-1.36-.92-.9-1.38-2.11-1.38-3.61v-.26c0-1.01.2-1.91.59-2.7.39-.79.94-1.41,1.66-1.83.71-.43,1.53-.64,2.45-.64,1.37,0,2.45.44,3.24,1.3.79.87,1.18,2.1,1.18,3.68v1.09s-6.39,0-6.39,0c.08.66.35,1.18.78,1.58.44.4.99.6,1.66.6,1.03,0,1.84-.37,2.42-1.12l1.32,1.48c-.4.57-.95,1.01-1.63,1.33-.69.32-1.45.48-2.28.47Zm-.3-8.25c-.53,0-.96.18-1.29.54-.33.36-.54.88-.64,1.55h3.73s0-.21,0-.21c-.01-.6-.17-1.06-.48-1.38-.31-.33-.75-.49-1.32-.49Z"/>
      <path class="cls-2" d="m42.43,61.19c0-1,.19-1.88.58-2.66s.94-1.38,1.66-1.81c.72-.43,1.56-.64,2.51-.64,1.35,0,2.46.42,3.32,1.25.86.83,1.33,1.96,1.43,3.38l.02.69c0,1.54-.43,2.77-1.29,3.7-.86.93-2.02,1.39-3.46,1.39-1.45,0-2.6-.47-3.46-1.4-.86-.93-1.29-2.19-1.29-3.79v-.12Zm2.68.19c0,.95.18,1.68.54,2.19.36.51.87.76,1.54.76.65,0,1.16-.25,1.52-.75.37-.5.55-1.3.55-2.39,0-.93-.18-1.66-.54-2.17-.36-.51-.88-.77-1.54-.77-.66,0-1.16.25-1.52.76-.36.51-.54,1.3-.54,2.37Z"/>
      <path class="cls-2" d="m53.2,61.22c0-1.54.37-2.78,1.1-3.72.73-.94,1.72-1.41,2.96-1.41,1.1,0,1.96.38,2.57,1.13l.11-.95h2.43s-.01,9.71-.01,9.71c0,.88-.2,1.64-.6,2.29-.4.65-.96,1.14-1.69,1.48-.72.34-1.57.51-2.54.51-.74,0-1.45-.15-2.15-.44-.7-.29-1.23-.67-1.58-1.14l1.19-1.63c.67.75,1.48,1.12,2.43,1.13.71,0,1.26-.19,1.66-.57.4-.38.59-.92.6-1.62v-.54c-.62.7-1.43,1.05-2.44,1.05-1.21,0-2.18-.47-2.93-1.42-.74-.94-1.11-2.2-1.11-3.75v-.11Zm2.68.2c0,.91.18,1.62.54,2.14.36.52.86.78,1.5.78.82,0,1.4-.3,1.75-.92v-4.23c-.35-.61-.93-.92-1.73-.92-.64,0-1.15.26-1.52.79-.37.53-.55,1.31-.55,2.36Z"/>
      <path class="cls-2" d="m70.07,58.81c-.36-.05-.69-.08-.96-.08-1.01,0-1.68.34-2,1.03v6.57s-2.69,0-2.69,0v-10.04s2.54,0,2.54,0l.07,1.2c.54-.92,1.28-1.38,2.24-1.38.3,0,.57.04.83.12l-.04,2.58Z"/>
      <path class="cls-2" d="m76.9,66.34c-.12-.24-.21-.54-.27-.9-.65.72-1.5,1.08-2.54,1.08-.98,0-1.8-.29-2.44-.86-.65-.57-.97-1.29-.97-2.15,0-1.06.4-1.88,1.19-2.45.79-.57,1.93-.85,3.42-.86h1.23s0-.57,0-.57c0-.46-.12-.83-.36-1.11-.24-.28-.61-.42-1.13-.42-.45,0-.81.11-1.06.32-.26.22-.39.51-.39.89h-2.68c0-.58.18-1.12.54-1.62.36-.49.87-.88,1.52-1.16.66-.28,1.39-.42,2.21-.42,1.24,0,2.22.31,2.94.94.73.62,1.09,1.5,1.09,2.62v4.35c0,.95.13,1.67.39,2.16v.16h-2.71Zm-2.22-1.87c.4,0,.76-.09,1.1-.26.33-.18.58-.41.74-.71v-1.73s-1,0-1,0c-1.34,0-2.06.46-2.14,1.39v.16c0,.33.11.61.34.83.24.22.56.33.96.33Z"/>
      <path class="cls-2" d="m82,66.35v-8.07s-1.48,0-1.48,0v-1.97s1.5,0,1.5,0v-.85c0-1.13.33-2,.97-2.62.65-.62,1.55-.93,2.71-.93.37,0,.83.06,1.36.19l-.03,2.08c-.22-.06-.49-.08-.82-.08-1.01,0-1.51.47-1.51,1.42v.81s1.99,0,1.99,0v1.97s-2,0-2,0v8.07s-2.7,0-2.7,0Z"/>
      <path class="cls-2" d="m88.07,53.72c0-.4.13-.73.41-.99.27-.26.64-.39,1.1-.39.46,0,.82.13,1.1.39.27.26.41.59.41.99,0,.41-.14.74-.41,1s-.64.39-1.09.39c-.45,0-.81-.13-1.09-.39-.27-.26-.41-.59-.41-1Zm2.83,12.64h-2.69s.01-10.04.01-10.04h2.69s-.01,10.04-.01,10.04Z"/>
      <path class="cls-2" d="m98.93,66.37c-.12-.24-.21-.54-.27-.9-.65.72-1.5,1.08-2.54,1.08-.98,0-1.8-.29-2.44-.86s-.97-1.29-.97-2.15c0-1.06.4-1.88,1.19-2.45.79-.57,1.93-.85,3.42-.86h1.23s0-.57,0-.57c0-.46-.12-.83-.36-1.11-.24-.28-.61-.42-1.13-.42-.45,0-.81.11-1.06.32-.26.22-.39.51-.39.89h-2.68c0-.58.18-1.12.54-1.62.36-.49.87-.88,1.52-1.16.66-.28,1.39-.42,2.21-.42,1.24,0,2.22.31,2.94.94.73.62,1.09,1.5,1.09,2.62v4.35c0,.95.13,1.67.39,2.16v.16h-2.71Zm-2.22-1.87c.4,0,.76-.09,1.1-.26.33-.18.58-.41.74-.71v-1.73s-1,0-1,0c-1.34,0-2.06.46-2.14,1.39v.16c0,.33.11.61.34.83.24.22.56.33.96.33Z"/>
    </g>
  </g>
</svg>