<?xml version="1.0" encoding="UTF-8"?><svg id="Camada_2" xmlns="http://www.w3.org/2000/svg" xmlns:xlink="http://www.w3.org/1999/xlink" viewBox="0 0 880.31 36.91"><defs><style>.cls-1{fill:#fff;}.cls-2{filter:url(#drop-shadow-1);}</style><filter id="drop-shadow-1" filterUnits="userSpaceOnUse"><feOffset dx="3" dy="4"/><feGaussianBlur result="blur" stdDeviation="0"/><feFlood flood-color="#004f53" flood-opacity=".75"/><feComposite in2="blur" operator="in"/><feComposite in="SourceGraphic"/></filter></defs><g id="Layer_1"><g class="cls-2"><path class="cls-1" d="m27.92,26.68c-.68,3.6-4,10.24-13.48,10.24-8.2,0-14.44-5.04-14.44-14.84C0,12.88,5.6,6.8,14.64,6.8s12.2,5.8,13.04,10.6l-9.32.88c-.56-2.6-1.56-4.84-3.88-4.84s-3.72,2.32-3.72,8.36c0,6.76,1.68,8.48,3.92,8.48,2.12,0,3.52-1.68,4.08-5.36l9.16,1.76Z"/><path class="cls-1" d="m30.52,36.15l.04-3.76V11.32l-.04-3.76h9.8l-.04,3.76v21.08l.04,3.76h-9.8Z"/><path class="cls-1" d="m64.28,25.16h-9.56v4.04h11.68v6.96h-21.44l.04-3.76V11.32l-.04-3.76h21.12v6.96h-11.36v3.84h9.56v6.8Zm-5.44-19.48l-3.4-2.68-3.44,2.68h-5.44l4.6-5.68h8.4l4.64,5.68h-5.36Z"/><path class="cls-1" d="m86.88,7.56h8.52l-.04,3.76v21.08l.04,3.76h-6.72l-10.52-13.96h-.08l.08,2.56v7.64l.04,3.76h-8.56l.04-3.76V11.32l-.04-3.76h8.32l8.96,11.84h.08l-.08-2.52v-5.56l-.04-3.76Z"/><path class="cls-1" d="m126.47,26.68c-.68,3.6-4,10.24-13.48,10.24-8.2,0-14.44-5.04-14.44-14.84,0-9.2,5.6-15.28,14.64-15.28s12.2,5.8,13.04,10.6l-9.32.88c-.56-2.6-1.56-4.84-3.88-4.84s-3.72,2.32-3.72,8.36c0,6.76,1.68,8.48,3.92,8.48,2.12,0,3.52-1.68,4.08-5.36l9.16,1.76Z"/><path class="cls-1" d="m129.08,36.15l.04-3.76V11.32l-.04-3.76h9.8l-.04,3.76v21.08l.04,3.76h-9.8Z"/><path class="cls-1" d="m149.24,36.15h-8.8l10.12-28.6h10.28l9.72,28.6h-10.52l-1.2-4.52h-8.2l-1.4,4.52Zm3.32-10.76h4.64l-2.08-8.08h-.08l-2.48,8.08Z"/><path class="cls-1" d="m192.16,16.04c-2.2-1.64-4.48-2.84-7.64-2.84-2.08,0-3.56.64-3.56,1.96,0,2.04,3.36,1.92,6.84,2.6,5.44,1.04,9.52,3.72,9.52,9.04,0,5.64-4.56,10.12-13.16,10.12-5.24,0-10.48-1.72-13.76-4.68l4.4-5.2c2.48,1.96,5.36,3.52,9.08,3.52,2.08,0,3.72-.6,3.72-2.04,0-2.16-3.76-2.12-7.32-2.84-5.16-1.04-9.04-3.44-9.04-8.76,0-5.6,4.36-10.12,12.56-10.12,4.56,0,9.68,1.56,12.72,4l-4.36,5.24Z"/><path class="cls-1" d="m224.35,36.15l.04-3.76v-7.12h-6.64v7.12l.04,3.76h-9.8l.04-3.76V11.32l-.04-3.76h9.8l-.04,3.76v6.64h6.64v-6.64l-.04-3.76h9.84l-.04,3.76v21.08l.04,3.76h-9.84Z"/><path class="cls-1" d="m247.96,11.32v14.52c0,2.4,1.16,3.68,3.44,3.68,2.12,0,3.2-1.16,3.2-3.68v-14.52l-.04-3.76h8.96l-.04,3.76v14.6c0,2.92-.76,5.92-3.04,8.08-2.16,2.04-5.44,2.92-9.4,2.92-4.36,0-7.92-1.08-10-3-2.48-2.32-2.8-5.56-2.8-9.16v-13.44l-.04-3.76h9.8l-.04,3.76Z"/><path class="cls-1" d="m267.56,32.39V11.32l-.04-3.76h12.44l4.4,12.92h.08l4.32-12.92h12.52l-.04,3.76v21.08l.04,3.76h-9.64l.04-3.76v-10.24l.08-2.72h-.08l-5.24,16.72h-5.84l-5.24-16.72h-.08l.08,2.72v10.24l.04,3.76h-7.88l.04-3.76Z"/><path class="cls-1" d="m311.64,36.15h-8.8l10.12-28.6h10.28l9.72,28.6h-10.52l-1.2-4.52h-8.2l-1.4,4.52Zm3.32-10.76h4.64l-2.08-8.08h-.08l-2.48,8.08Z"/><path class="cls-1" d="m351.95,7.56h8.52l-.04,3.76v21.08l.04,3.76h-6.72l-10.52-13.96h-.08l.08,2.56v7.64l.04,3.76h-8.56l.04-3.76V11.32l-.04-3.76h8.32l8.96,11.84h.08l-.08-2.52v-5.56l-.04-3.76Z"/><path class="cls-1" d="m370.83,36.15h-8.8l10.12-28.6h10.28l9.72,28.6h-10.52l-1.2-4.52h-8.2l-1.4,4.52Zm3.32-10.76h4.64l-2.08-8.08h-.08l-2.48,8.08Z"/><path class="cls-1" d="m413.75,16.04c-2.2-1.64-4.48-2.84-7.64-2.84-2.08,0-3.56.64-3.56,1.96,0,2.04,3.36,1.92,6.84,2.6,5.44,1.04,9.52,3.72,9.52,9.04,0,5.64-4.56,10.12-13.16,10.12-5.24,0-10.48-1.72-13.76-4.68l4.4-5.2c2.48,1.96,5.36,3.52,9.08,3.52,2.08,0,3.72-.6,3.72-2.04,0-2.16-3.76-2.12-7.32-2.84-5.16-1.04-9.04-3.44-9.04-8.76,0-5.6,4.36-10.12,12.56-10.12,4.56,0,9.68,1.56,12.72,4l-4.36,5.24Z"/><path class="cls-1" d="m448.91,25.16h-9.56v4.04h11.68v6.96h-21.44l.04-3.76V11.32l-.04-3.76h21.12v6.96h-11.36v3.84h9.56v6.8Z"/><path class="cls-1" d="m482.31,16.04c-2.2-1.64-4.48-2.84-7.64-2.84-2.08,0-3.56.64-3.56,1.96,0,2.04,3.36,1.92,6.84,2.6,5.44,1.04,9.52,3.72,9.52,9.04,0,5.64-4.56,10.12-13.16,10.12-5.24,0-10.48-1.72-13.76-4.68l4.4-5.2c2.48,1.96,5.36,3.52,9.08,3.52,2.08,0,3.72-.6,3.72-2.04,0-2.16-3.76-2.12-7.32-2.84-5.16-1.04-9.04-3.44-9.04-8.76,0-5.6,4.36-10.12,12.56-10.12,4.56,0,9.68,1.56,12.72,4l-4.36,5.24Z"/><path class="cls-1" d="m489.2,21.84c0-8.24,5.28-15.04,14.72-15.04s14.68,6.8,14.68,15.04-5.32,15.08-14.68,15.08-14.72-6.8-14.72-15.08Zm18.44,0c0-6.28-1.2-8.4-3.72-8.4s-3.72,2.12-3.72,8.4,1.12,8.44,3.72,8.44,3.72-2.12,3.72-8.44Z"/><path class="cls-1" d="m548.55,26.68c-.68,3.6-4,10.24-13.48,10.24-8.2,0-14.44-5.04-14.44-14.84,0-9.2,5.6-15.28,14.64-15.28s12.2,5.8,13.04,10.6l-9.32.88c-.56-2.6-1.56-4.84-3.88-4.84s-3.72,2.32-3.72,8.36c0,6.76,1.68,8.48,3.92,8.48,2.12,0,3.52-1.68,4.08-5.36l9.16,1.76Z"/><path class="cls-1" d="m551.16,36.15l.04-3.76V11.32l-.04-3.76h9.8l-.04,3.76v21.08l.04,3.76h-9.8Z"/><path class="cls-1" d="m571.31,36.15h-8.8l10.12-28.6h10.28l9.72,28.6h-10.52l-1.2-4.52h-8.2l-1.4,4.52Zm3.32-10.76h4.64l-2.08-8.08h-.08l-2.48,8.08Z"/><path class="cls-1" d="m594.39,36.15l.04-3.76V11.32l-.04-3.76h9.8l-.04,3.76v21.08l.04,3.76h-9.8Z"/><path class="cls-1" d="m628.63,16.04c-2.2-1.64-4.48-2.84-7.64-2.84-2.08,0-3.56.64-3.56,1.96,0,2.04,3.36,1.92,6.84,2.6,5.44,1.04,9.52,3.72,9.52,9.04,0,5.64-4.56,10.12-13.16,10.12-5.24,0-10.48-1.72-13.76-4.68l4.4-5.2c2.48,1.96,5.36,3.52,9.08,3.52,2.08,0,3.72-.6,3.72-2.04,0-2.16-3.76-2.12-7.32-2.84-5.16-1.04-9.04-3.44-9.04-8.76,0-5.6,4.36-10.12,12.56-10.12,4.56,0,9.68,1.56,12.72,4l-4.36,5.24Z"/><path class="cls-1" d="m649.55,36.15h-8.8l10.12-28.6h10.28l9.72,28.6h-10.52l-1.2-4.52h-8.2l-1.4,4.52Zm3.32-10.76h4.64l-2.08-8.08h-.08l-2.48,8.08Z"/><path class="cls-1" d="m682.39,26.2v6.2l.04,3.76h-9.8l.04-3.76V11.32l-.04-3.76h14.32c5.72,0,11.52,1.88,11.52,9.24s-4.92,9.4-10.36,9.4h-5.72Zm0-6.6h3.24c1.96,0,3.36-.52,3.36-2.76s-1.44-2.68-3.36-2.68h-3.24v5.44Z"/><path class="cls-1" d="m701.39,36.15l.04-3.76V11.32l-.04-3.76h9.8l-.04,3.76v17.88h10.28v6.96h-20.04Z"/><path class="cls-1" d="m724.11,36.15l.04-3.76V11.32l-.04-3.76h9.8l-.04,3.76v21.08l.04,3.76h-9.8Z"/><path class="cls-1" d="m764.99,26.68c-.68,3.6-4,10.24-13.48,10.24-8.2,0-14.44-5.04-14.44-14.84,0-9.2,5.6-15.28,14.64-15.28s12.2,5.8,13.04,10.6l-9.32.88c-.56-2.6-1.56-4.84-3.88-4.84s-3.72,2.32-3.72,8.36c0,6.76,1.68,8.48,3.92,8.48,2.12,0,3.52-1.68,4.08-5.36l9.16,1.76Z"/><path class="cls-1" d="m773.15,36.15h-8.8l10.12-28.6h10.28l9.72,28.6h-10.52l-1.2-4.52h-8.2l-1.4,4.52Zm3.32-10.76h4.64l-2.08-8.08h-.08l-2.48,8.08Z"/><path class="cls-1" d="m796.23,7.56h12.72c9.16,0,14.72,5.76,14.72,14.6,0,9.36-6.08,14-14.72,14h-12.72l.04-3.76V11.32l-.04-3.76Zm9.76,22.04h1.72c3.28,0,5.52-2,5.52-7.68s-2.2-7.76-5.52-7.76h-1.72v15.44Z"/><path class="cls-1" d="m832.23,36.15h-8.8l10.12-28.6h10.28l9.72,28.6h-10.52l-1.2-4.52h-8.2l-1.4,4.52Zm3.32-10.76h4.64l-2.08-8.08h-.08l-2.48,8.08Z"/><path class="cls-1" d="m875.15,16.04c-2.2-1.64-4.48-2.84-7.64-2.84-2.08,0-3.56.64-3.56,1.96,0,2.04,3.36,1.92,6.84,2.6,5.44,1.04,9.52,3.72,9.52,9.04,0,5.64-4.56,10.12-13.16,10.12-5.24,0-10.48-1.72-13.76-4.68l4.4-5.2c2.48,1.96,5.36,3.52,9.08,3.52,2.08,0,3.72-.6,3.72-2.04,0-2.16-3.76-2.12-7.32-2.84-5.16-1.04-9.04-3.44-9.04-8.76,0-5.6,4.36-10.12,12.56-10.12,4.56,0,9.68,1.56,12.72,4l-4.36,5.24Z"/></g></g></svg>