<?xml version="1.0" encoding="UTF-8"?><svg id="Camada_2" xmlns="http://www.w3.org/2000/svg" xmlns:xlink="http://www.w3.org/1999/xlink" viewBox="0 0 411.64 1031.43"><defs><style>.cls-1{fill:none;}.cls-2{clip-path:url(#clippath);}.cls-3{fill:#be715b;}.cls-4{fill:#8a4d3c;}</style><clipPath id="clippath"><rect class="cls-1" y="0" width="314.19" height="475.14"/></clipPath></defs><g id="Layer_1"><g class="cls-2"><path class="cls-3" d="m275.63,296.46s89.87,396.19,136.01,697.32l-241.35,37.65c-30.66-220.8-51.02-446.55-62.6-676.53,54.73-34.61,110.53-56.21,167.94-58.44Z"/><path class="cls-3" d="m13.87,171.18s7.93,52.87,28.76,98.68c23.4,51.46,68.46,88.65,68.46,88.65l130.13-53.31-17.74-177.77L13.87,171.18Z"/><path class="cls-3" d="m43.37,121.14s-5.76-6.45-16.1-2.4c-9.79,3.83-30.58,25.6-17.15,49.1,8.93,15.62,69.34,57.05,84.83,46.96,14.41-9.39-35.25-83.16-51.57-93.66Z"/><path class="cls-3" d="m124.4,134.9c-6.79-17.36-20.57-54.64-36.84-63.11-14.3-7.44-29.21,1.33-36.15,7.56-7.67,6.89-17.36,22.36-8.04,41.78,9.32,19.42,45.15,94.66,85.07,79.92,24.88-9.19,2.75-48.79-4.05-66.15Z"/><path class="cls-3" d="m170.94,94.94s-12.41-44.02-21.83-52.94c-10.3-9.75-29.84-3.94-42.3,4.14-12.47,8.09-21.61,21.64-17.98,32.13,3.63,10.49,36.63,66.9,36.63,66.9l45.48-50.23Z"/><path class="cls-3" d="m257.89,106.09s-26.7-73.27-39.65-87.16c-11.81-12.66-28.89-13.92-43.89-7.89-14.99,6.02-26.67,20.13-25.25,30.96,1.42,10.83,30.59,70.76,30.59,70.76l78.2-6.67Z"/><path class="cls-3" d="m276.17,298.67s33.54-76.16,32.63-134.51c-.47-30.31-9.98-45.84-16.75-49.88s-75.98-41.12-101.54-36.82c-15.33,2.58-98.9,69.87-80.97,95.87,10.49,15.21,92.35-21.2,92.35-21.2l20.49,159.86,53.79-13.32Z"/><path class="cls-4" d="m124.78,356.45c-9.06,1.41-15.9.46-21.43-2.86-.6-.36-.81-1.18-.48-1.83.33-.65,1.08-.88,1.68-.53,7.19,4.33,17.07,4.24,32.02-.34.64-.21,1.34.21,1.52.93.18.71-.2,1.46-.86,1.66-4.57,1.4-8.71,2.39-12.46,2.97Z"/><path class="cls-4" d="m196.57,300.02c-.32.05-.66-.04-.94-.28-31.83-27.37-45.96-70.61-42.03-128.54.05-.74.63-1.29,1.32-1.24.68.06,1.19.7,1.14,1.44-3.88,56.98,9.95,99.46,41.09,126.23.54.46.63,1.3.2,1.89-.2.28-.49.45-.79.5Z"/><path class="cls-4" d="m247.05,203.71c-.38.06-.77-.07-1.06-.39l-44.39-49.58c-8.38,3.99-73.85,34.38-92.75,20.72-2.45-1.77-5.01-5.49-3.3-13.16,6.05-27.12,59.79-81.27,84.15-85.07.23-.04.45-.07.68-.09,29.36-3.51,99.27,35.31,102.23,36.96.61.34.84,1.15.54,1.81-.31.66-1.06.92-1.66.58-.72-.4-72.21-40.11-100.84-36.68-23.29,2.78-76.73,56.41-82.69,83.13-1.1,4.94-.34,8.4,2.27,10.29,18.64,13.48,90.44-20.96,91.17-21.31.47-.23,1.03-.11,1.38.29l44.99,50.25c.47.53.46,1.38-.02,1.9-.19.21-.44.33-.69.37Z"/><path class="cls-4" d="m118.32,161.25c-3.97.62-7.78.27-11.16-1.32-.63-.29-.91-1.09-.64-1.77.27-.68.99-1,1.62-.7,11.85,5.58,31.01-6.72,40.22-21.46,5.61-8.99-5.25-24.84-5.36-24.99-.41-.59-.3-1.43.24-1.88.55-.45,1.32-.33,1.73.26.5.71,12.03,17.56,5.43,28.13-7.29,11.68-20.38,21.91-32.08,23.74Z"/><path class="cls-4" d="m202.06,153.46c-.36.06-.74-.06-1.02-.35-.5-.51-.52-1.36-.06-1.9,9.83-11.42,11.6-30.66,11.62-30.85.07-.73.66-1.27,1.35-1.21.68.07,1.18.73,1.11,1.47-.07.83-1.87,20.36-12.28,32.44-.2.23-.46.37-.73.41Z"/><path class="cls-4" d="m167.65,87.6c-.53.08-1.07-.22-1.3-.78l-18.36-44.27c-.28-.68,0-1.47.62-1.78.63-.31,1.35,0,1.63.67l18.36,44.27c.28.68,0,1.47-.62,1.78-.11.05-.22.09-.33.11Z"/><path class="cls-4" d="m123.41,132.27c-.46.07-.94-.15-1.21-.6l-35.06-59.24c-.37-.62-.21-1.46.37-1.86.57-.41,1.34-.22,1.71.4l35.06,59.24c.37.62.21,1.46-.37,1.86-.16.11-.32.17-.49.2Z"/><path class="cls-4" d="m91.61,216.92c-9.5,1.48-24.45-5.32-36.58-12.16-17.1-9.64-35.05-23.04-42.52-30.43-.51-.5-.54-1.35-.09-1.9.46-.55,1.24-.59,1.74-.09,14.97,14.79,70.25,52.21,81.98,39.57,2.74-2.95,3.51-13.29-22.06-49.32-14.82-20.89-31.45-40.34-31.62-40.53-.46-.54-.44-1.39.06-1.9s1.28-.48,1.74.06c6.9,8.05,67.03,79.1,53.61,93.6-1.6,1.73-3.74,2.71-6.27,3.1Z"/><path class="cls-4" d="m124.74,203.31c-9.62,1.5-21.73-.96-29.91-7.07-.56-.42-.7-1.26-.32-1.87.39-.61,1.15-.76,1.72-.35,11.19,8.37,30.98,9.48,38.5,2.16,7.16-6.98,3.18-20.17,3.14-20.3-.22-.7.13-1.46.77-1.7.65-.24,1.34.14,1.56.84.19.61,4.55,14.99-3.83,23.16-2.76,2.69-6.89,4.39-11.63,5.13Z"/><path class="cls-4" d="m150.89,383.29c-.23.04-.46,0-.68-.11-.62-.31-.9-1.1-.62-1.78l8.99-21.67c.29-.68,1.02-.97,1.63-.67.62.31.9,1.1.62,1.78l-8.99,21.67c-.18.43-.55.71-.95.78Z"/><path class="cls-4" d="m161.44,424.94c-.24.04-.49,0-.72-.13-.61-.33-.86-1.13-.56-1.8l15.73-34.7c.3-.66,1.04-.93,1.65-.61.61.33.86,1.13.56,1.8l-15.73,34.7c-.19.41-.54.67-.93.73Z"/></g></g></svg>