<?xml version="1.0" encoding="UTF-8"?><svg id="Camada_2" xmlns="http://www.w3.org/2000/svg" xmlns:xlink="http://www.w3.org/1999/xlink" viewBox="0 0 294.81 52.69"><defs><style>.cls-1{fill:#fff;}.cls-2{filter:url(#drop-shadow-1);}</style><filter id="drop-shadow-1" filterUnits="userSpaceOnUse"><feOffset dx="1.96" dy="2.62"/><feGaussianBlur result="blur" stdDeviation="0"/><feFlood flood-color="#004f53" flood-opacity=".75"/><feComposite in2="blur" operator="in"/><feComposite in="SourceGraphic"/></filter></defs><g id="Layer_1"><g class="cls-2"><path class="cls-1" d="m27.72,17.45c-.44,2.35-2.62,6.7-8.82,6.7-5.36,0-9.44-3.3-9.44-9.7,0-6.02,3.66-9.99,9.57-9.99s7.98,3.79,8.53,6.93l-6.1.58c-.37-1.7-1.02-3.17-2.54-3.17s-2.43,1.52-2.43,5.47c0,4.42,1.1,5.55,2.56,5.55,1.39,0,2.3-1.1,2.67-3.51l5.99,1.15Z"/><path class="cls-1" d="m29.42,23.65l.03-2.46V7.4l-.03-2.46h6.41l-.03,2.46v13.79l.03,2.46h-6.41Z"/><path class="cls-1" d="m51.5,16.45h-6.25v2.64h7.64v4.55h-14.02l.03-2.46V7.4l-.03-2.46h13.81v4.55h-7.43v2.51h6.25v4.45Zm-3.56-12.74l-2.22-1.75-2.25,1.75h-3.56l3.01-3.71h5.49l3.03,3.71h-3.51Z"/><path class="cls-1" d="m66.29,4.94h5.57l-.03,2.46v13.79l.03,2.46h-4.39l-6.88-9.13h-.05l.05,1.67v5l.03,2.46h-5.6l.03-2.46V7.4l-.03-2.46h5.44l5.86,7.74h.05l-.05-1.65v-3.64l-.03-2.46Z"/><path class="cls-1" d="m92.19,17.45c-.44,2.35-2.62,6.7-8.82,6.7-5.36,0-9.44-3.3-9.44-9.7,0-6.02,3.66-9.99,9.57-9.99s7.98,3.79,8.53,6.93l-6.1.58c-.37-1.7-1.02-3.17-2.54-3.17s-2.43,1.52-2.43,5.47c0,4.42,1.1,5.55,2.56,5.55,1.39,0,2.3-1.1,2.67-3.51l5.99,1.15Z"/><path class="cls-1" d="m93.89,23.65l.03-2.46V7.4l-.03-2.46h6.41l-.03,2.46v13.79l.03,2.46h-6.41Z"/><path class="cls-1" d="m107.08,23.65h-5.75l6.62-18.7h6.72l6.36,18.7h-6.88l-.79-2.96h-5.36l-.92,2.96Zm2.17-7.04h3.03l-1.36-5.28h-.05l-1.62,5.28Z"/><path class="cls-1" d="m135.15,10.49c-1.44-1.07-2.93-1.86-5-1.86-1.36,0-2.33.42-2.33,1.28,0,1.33,2.2,1.26,4.47,1.7,3.56.68,6.23,2.43,6.23,5.91,0,3.69-2.98,6.62-8.61,6.62-3.43,0-6.85-1.12-9-3.06l2.88-3.4c1.62,1.28,3.51,2.3,5.94,2.3,1.36,0,2.43-.39,2.43-1.33,0-1.41-2.46-1.39-4.79-1.86-3.37-.68-5.91-2.25-5.91-5.73,0-3.66,2.85-6.62,8.21-6.62,2.98,0,6.33,1.02,8.32,2.62l-2.85,3.43Z"/><path class="cls-1" d="m156.21,23.65l.03-2.46v-4.66h-4.34v4.66l.03,2.46h-6.41l.03-2.46V7.4l-.03-2.46h6.41l-.03,2.46v4.34h4.34v-4.34l-.03-2.46h6.44l-.03,2.46v13.79l.03,2.46h-6.44Z"/><path class="cls-1" d="m171.65,7.4v9.5c0,1.57.76,2.41,2.25,2.41,1.39,0,2.09-.76,2.09-2.41V7.4l-.03-2.46h5.86l-.03,2.46v9.55c0,1.91-.5,3.87-1.99,5.28-1.41,1.33-3.56,1.91-6.15,1.91-2.85,0-5.18-.71-6.54-1.96-1.62-1.52-1.83-3.64-1.83-5.99V7.4l-.03-2.46h6.41l-.03,2.46Z"/><path class="cls-1" d="m184.47,21.19V7.4l-.03-2.46h8.14l2.88,8.45h.05l2.83-8.45h8.19l-.03,2.46v13.79l.03,2.46h-6.3l.03-2.46v-6.7l.05-1.78h-.05l-3.43,10.93h-3.82l-3.43-10.93h-.05l.05,1.78v6.7l.03,2.46h-5.15l.03-2.46Z"/><path class="cls-1" d="m213.3,23.65h-5.75l6.62-18.7h6.72l6.36,18.7h-6.88l-.79-2.96h-5.36l-.92,2.96Zm2.17-7.04h3.03l-1.36-5.28h-.05l-1.62,5.28Z"/><path class="cls-1" d="m239.67,4.94h5.57l-.03,2.46v13.79l.03,2.46h-4.39l-6.88-9.13h-.05l.05,1.67v5l.03,2.46h-5.6l.03-2.46V7.4l-.03-2.46h5.44l5.86,7.74h.05l-.05-1.65v-3.64l-.03-2.46Z"/><path class="cls-1" d="m252.02,23.65h-5.75l6.62-18.7h6.72l6.36,18.7h-6.88l-.79-2.96h-5.36l-.92,2.96Zm2.17-7.04h3.03l-1.36-5.28h-.05l-1.62,5.28Z"/><path class="cls-1" d="m280.09,10.49c-1.44-1.07-2.93-1.86-5-1.86-1.36,0-2.33.42-2.33,1.28,0,1.33,2.2,1.26,4.47,1.7,3.56.68,6.23,2.43,6.23,5.91,0,3.69-2.98,6.62-8.61,6.62-3.43,0-6.85-1.12-9-3.06l2.88-3.4c1.62,1.28,3.51,2.3,5.94,2.3,1.36,0,2.43-.39,2.43-1.33,0-1.41-2.46-1.39-4.79-1.86-3.37-.68-5.91-2.25-5.91-5.73,0-3.66,2.85-6.62,8.21-6.62,2.98,0,6.33,1.02,8.32,2.62l-2.85,3.43Z"/><path class="cls-1" d="m12.63,45h-6.25v2.64h7.64v4.55H0l.03-2.46v-13.79l-.03-2.46h13.81v4.55h-7.43v2.51h6.25v4.45Z"/><path class="cls-1" d="m34.48,39.04c-1.44-1.07-2.93-1.86-5-1.86-1.36,0-2.33.42-2.33,1.28,0,1.33,2.2,1.26,4.47,1.7,3.56.68,6.23,2.43,6.23,5.91,0,3.69-2.98,6.62-8.61,6.62-3.43,0-6.85-1.12-9-3.06l2.88-3.4c1.62,1.28,3.51,2.3,5.94,2.3,1.36,0,2.43-.39,2.43-1.33,0-1.41-2.46-1.39-4.79-1.86-3.37-.68-5.91-2.25-5.91-5.73,0-3.66,2.85-6.62,8.21-6.62,2.98,0,6.33,1.02,8.32,2.62l-2.85,3.43Z"/><path class="cls-1" d="m38.98,42.83c0-5.39,3.45-9.84,9.63-9.84s9.6,4.45,9.6,9.84-3.48,9.86-9.6,9.86-9.63-4.45-9.63-9.86Zm12.06,0c0-4.11-.78-5.49-2.43-5.49s-2.43,1.39-2.43,5.49.73,5.52,2.43,5.52,2.43-1.39,2.43-5.52Z"/><path class="cls-1" d="m77.81,46c-.44,2.35-2.62,6.7-8.82,6.7-5.36,0-9.44-3.3-9.44-9.7,0-6.02,3.66-9.99,9.57-9.99s7.98,3.79,8.53,6.93l-6.1.58c-.37-1.7-1.02-3.17-2.54-3.17s-2.43,1.52-2.43,5.47c0,4.42,1.1,5.55,2.56,5.55,1.39,0,2.3-1.1,2.67-3.51l5.99,1.15Z"/><path class="cls-1" d="m79.51,52.2l.03-2.46v-13.79l-.03-2.46h6.41l-.03,2.46v13.79l.03,2.46h-6.41Z"/><path class="cls-1" d="m92.7,52.2h-5.75l6.62-18.7h6.72l6.36,18.7h-6.88l-.79-2.96h-5.36l-.92,2.96Zm2.17-7.04h3.03l-1.36-5.28h-.05l-1.62,5.28Z"/><path class="cls-1" d="m107.79,52.2l.03-2.46v-13.79l-.03-2.46h6.41l-.03,2.46v13.79l.03,2.46h-6.41Z"/><path class="cls-1" d="m130.19,39.04c-1.44-1.07-2.93-1.86-5-1.86-1.36,0-2.33.42-2.33,1.28,0,1.33,2.2,1.26,4.47,1.7,3.56.68,6.23,2.43,6.23,5.91,0,3.69-2.98,6.62-8.61,6.62-3.43,0-6.85-1.12-9-3.06l2.88-3.4c1.62,1.28,3.51,2.3,5.94,2.3,1.36,0,2.43-.39,2.43-1.33,0-1.41-2.46-1.39-4.79-1.86-3.37-.68-5.91-2.25-5.91-5.73,0-3.66,2.85-6.62,8.21-6.62,2.98,0,6.33,1.02,8.32,2.62l-2.85,3.43Z"/><path class="cls-1" d="m143.87,52.2h-5.75l6.62-18.7h6.72l6.36,18.7h-6.88l-.79-2.96h-5.36l-.92,2.96Zm2.17-7.04h3.03l-1.36-5.28h-.05l-1.62,5.28Z"/><path class="cls-1" d="m165.35,45.68v4.05l.03,2.46h-6.41l.03-2.46v-13.79l-.03-2.46h9.36c3.74,0,7.53,1.23,7.53,6.04s-3.22,6.15-6.78,6.15h-3.74Zm0-4.32h2.12c1.28,0,2.2-.34,2.2-1.81s-.94-1.75-2.2-1.75h-2.12v3.56Z"/><path class="cls-1" d="m177.78,52.2l.03-2.46v-13.79l-.03-2.46h6.41l-.03,2.46v11.69h6.72v4.55h-13.11Z"/><path class="cls-1" d="m192.64,52.2l.03-2.46v-13.79l-.03-2.46h6.41l-.03,2.46v13.79l.03,2.46h-6.41Z"/><path class="cls-1" d="m219.38,46c-.44,2.35-2.62,6.7-8.82,6.7-5.36,0-9.44-3.3-9.44-9.7,0-6.02,3.66-9.99,9.57-9.99s7.98,3.79,8.53,6.93l-6.1.58c-.37-1.7-1.02-3.17-2.54-3.17s-2.43,1.52-2.43,5.47c0,4.42,1.1,5.55,2.56,5.55,1.39,0,2.3-1.1,2.67-3.51l5.99,1.15Z"/><path class="cls-1" d="m224.72,52.2h-5.75l6.62-18.7h6.72l6.36,18.7h-6.88l-.79-2.96h-5.36l-.92,2.96Zm2.17-7.04h3.03l-1.36-5.28h-.05l-1.62,5.28Z"/><path class="cls-1" d="m239.81,33.49h8.32c5.99,0,9.63,3.77,9.63,9.55,0,6.12-3.98,9.16-9.63,9.16h-8.32l.03-2.46v-13.79l-.03-2.46Zm6.38,14.41h1.12c2.14,0,3.61-1.31,3.61-5.02s-1.44-5.07-3.61-5.07h-1.12v10.1Z"/><path class="cls-1" d="m263.36,52.2h-5.75l6.62-18.7h6.72l6.36,18.7h-6.88l-.79-2.96h-5.36l-.92,2.96Zm2.17-7.04h3.03l-1.36-5.28h-.05l-1.62,5.28Z"/><path class="cls-1" d="m291.43,39.04c-1.44-1.07-2.93-1.86-5-1.86-1.36,0-2.33.42-2.33,1.28,0,1.33,2.2,1.26,4.47,1.7,3.56.68,6.23,2.43,6.23,5.91,0,3.69-2.98,6.62-8.61,6.62-3.43,0-6.85-1.12-9-3.06l2.88-3.4c1.62,1.28,3.51,2.3,5.94,2.3,1.36,0,2.43-.39,2.43-1.33,0-1.41-2.46-1.39-4.79-1.86-3.37-.68-5.91-2.25-5.91-5.73,0-3.66,2.85-6.62,8.21-6.62,2.98,0,6.33,1.02,8.32,2.62l-2.85,3.43Z"/></g></g></svg>